<svg id="Layer_1" data-name="Layer 1" xmlns="http://www.w3.org/2000/svg" viewBox="0 0 788.64 260.17"><title>logo_subcity</title><path d="M658,548.7q0,11.25-3.47,19.16a33.5,33.5,0,0,1-9.61,12.86,37.57,37.57,0,0,1-14.69,7.1,78,78,0,0,1-19,2.14q-20.3,0-32.85-9.76a32.28,32.28,0,0,1-13.09-25.53q0-3.47,3.74-3.48h14.15q2.94,0,4,3.42a19.84,19.84,0,0,0,7.88,9.87Q600.6,568,611.29,568a46.58,46.58,0,0,0,7.88-.66,18.21,18.21,0,0,0,6.94-2.67,14.72,14.72,0,0,0,4.94-5.47,21.31,21.31,0,0,0,2.14-9.07q.26-6.13-3.34-9.47a32,32,0,0,0-8.15-5.47L591.79,521.9a40.34,40.34,0,0,1-16.69-13.74,34.39,34.39,0,0,1-6.54-20.41q0-18.14,11.88-28.94T612.36,448q20.29,0,32.31,9.51t12.82,23.91a2.43,2.43,0,0,1-1.07,2.67,5.61,5.61,0,0,1-2.94.8H636.93a4.59,4.59,0,0,1-2.4-.4,6.29,6.29,0,0,1-1.34-2.27,18.24,18.24,0,0,0-8.68-9.49,27.33,27.33,0,0,0-12.15-2.81,24.47,24.47,0,0,0-13.09,3.62q-5.88,3.62-5.88,12.73a14,14,0,0,0,2.67,8.3,16.46,16.46,0,0,0,6.94,5.63l24.84,11.52q7.21,3.48,13,6.83a39.37,39.37,0,0,1,9.48,7.5,29.57,29.57,0,0,1,5.74,9.51A37.72,37.72,0,0,1,658,548.7Z" transform="translate(-565.35 -384.65)"/><path d="M738.95,568q12,0,18-7.62a27.87,27.87,0,0,0,6-17.78V456.83q0-4,4.27-4h15.22q4,0,4,4V581.41q0,4.28-4,4.28H769.12q-4.28,0-4.27-4.28,0-2.41-3.21-2.41-1.34,0-3.47,2.14a35.2,35.2,0,0,1-9.61,6.28,28.81,28.81,0,0,1-12,2.54q-20.83,0-32.85-12.57t-12-34.75V456.56q0-4,4.27-4h15.22a4.16,4.16,0,0,1,3.07,1.2,3.85,3.85,0,0,1,1.2,2.81v85.82q0,12,5.88,18.85T738.95,568Z" transform="translate(-565.35 -384.65)"/><path d="M878.89,448.27a53.75,53.75,0,0,1,18.69,3.34,48.85,48.85,0,0,1,16,9.62,48.1,48.1,0,0,1,11.08,14.84,43,43,0,0,1,4.14,19v48.66a45.54,45.54,0,0,1-3.87,19,43.52,43.52,0,0,1-10.55,14.57,47.77,47.77,0,0,1-15.89,9.36A57.16,57.16,0,0,1,878.89,590q-13.89,0-23.37-4a45.23,45.23,0,0,1-15.36-10.16,36.6,36.6,0,0,1-8.41-13.63,45.55,45.55,0,0,1-2.54-14.7V388.66q0-4,4-4H847.1q4,0,4,4V455A1.94,1.94,0,0,0,853,457.1a6.2,6.2,0,0,0,2.94-.27,39.75,39.75,0,0,1,10.15-5.75A33,33,0,0,1,878.89,448.27Zm-27.77,96.9a20.54,20.54,0,0,0,2.27,9.84,21.65,21.65,0,0,0,6.14,7.18,27.25,27.25,0,0,0,8.81,4.39A36.9,36.9,0,0,0,878.89,568a27.26,27.26,0,0,0,10.28-2,28.22,28.22,0,0,0,8.68-5.45,27.2,27.2,0,0,0,6-8.11,22.47,22.47,0,0,0,2.27-10V496a22.49,22.49,0,0,0-2.27-10,29,29,0,0,0-6-8.24,27.55,27.55,0,0,0-19-7.58,27.94,27.94,0,0,0-10.55,2,29.83,29.83,0,0,0-8.81,5.45,26.11,26.11,0,0,0-6.14,8.11A23,23,0,0,0,851.11,496Z" transform="translate(-565.35 -384.65)"/><path d="M1056.75,495.86q0,3.48-4,3.48h-14.69q-4,0-4-3.44,0-10.87-6-18.28t-17.23-7.42a22.15,22.15,0,0,0-9.75,2.13,25.24,25.24,0,0,0-7.61,5.58,26.12,26.12,0,0,0-5.07,8.11,26.49,26.49,0,0,0-1.87,10v46.53a26.9,26.9,0,0,0,6.41,18q6.41,7.58,17.36,7.58,11.21,0,17.89-7.29t6.68-18.15q0-3.44,4-3.44h13.89q4,0,4,3.48,0,24.6-12.82,36T1010.28,590a44.94,44.94,0,0,1-18.16-3.61,46.24,46.24,0,0,1-14.42-9.76A44.1,44.1,0,0,1,968.08,562a47.55,47.55,0,0,1-3.47-18.31V495.06a46.33,46.33,0,0,1,3.61-18.18,48.82,48.82,0,0,1,9.75-15,43.81,43.81,0,0,1,14.56-10,45.9,45.9,0,0,1,18.29-3.61q20.83,0,33.38,12.57T1056.75,495.86Z" transform="translate(-565.35 -384.65)"/><path d="M1103.75,425.82q-15,0-15-15.24,0-14.7,15-14.7,7.21,0,11.22,3.74t4,11Q1119,425.82,1103.75,425.82Zm6.63,159.87h-13.79q-4.06,0-4.06-4V456.83q0-4,4.06-4h13.79q4.06,0,4.06,4V581.68Q1114.44,585.69,1110.38,585.69Z" transform="translate(-565.35 -384.65)"/><path d="M946.75,644.82q-15,0-15-15.24,0-14.7,15-14.7,7.21,0,11.22,3.74t4,11Q962,644.82,946.75,644.82Z" transform="translate(-565.35 -384.65)"/><path d="M1155.56,452.55h14.15q4.27,0,4.27-4.28V420.74q0-4.27,4.27-4.28h13.62q4,0,4,4.28v27.54q0,4.28,4,4.28h28.84q4.54,0,4.54,4v9.62q0,4-4.54,4H1199.9q-4,0-4,4.28v69.24q0,26.47,32.58,26.47,4.27,0,4.27,4.28v11q0,4.54-4.27,4.54-25.38,0-39.93-11.23t-14.55-35v-69q0-4.54-4.27-4.54h-14.15q-4.54,0-4.54-4v-9.36Q1151,452.56,1155.56,452.55Z" transform="translate(-565.35 -384.65)"/><path d="M1251.7,456q0-3.47,3.47-3.48h16.29a2.93,2.93,0,0,1,2.94,1.87L1300,534.36q.8,2.68,4.27,2.67t4.27-2.67l23-79.94c.35-1.24,1.33-1.87,2.94-1.87h16a3,3,0,0,1,2.54,1.2,4.09,4.09,0,0,1,.93,2.54,65,65,0,0,1-1.74,6.42q-1.74,5.88-4.67,15.1t-6.68,21.12q-3.74,11.9-7.75,24.33t-8,24.73q-4,12.3-7.21,22.46t-5.48,17.24q-2.27,7.08-2.8,9.22-1.34,4-2.27,8a46.81,46.81,0,0,1-2.54,7.75q-6.15,15.5-16.69,22.59t-27.37,7.08q-3.74,0-3.74-3.74v-13.1q0-4,3.74-4,9.34,0,14.69-3.88a28.61,28.61,0,0,0,8.41-9.49,47.49,47.49,0,0,0,4.54-11.76q1.46-6.15,2.8-10.69a11.4,11.4,0,0,0,.53-2.67,11.58,11.58,0,0,0-.53-2.94q-11-33.95-19.76-61-3.74-11.49-7.21-22.59T1258,476.61q-2.8-8.82-4.54-14.44A57,57,0,0,1,1251.7,456Z" transform="translate(-565.35 -384.65)"/></svg>