<?xml version="1.0" encoding="utf-8"?>
<!-- Generator: Adobe Illustrator 21.1.0, SVG Export Plug-In . SVG Version: 6.00 Build 0)  -->
<svg version="1.1" id="Layer_1" xmlns="http://www.w3.org/2000/svg" xmlns:xlink="http://www.w3.org/1999/xlink" x="0px" y="0px"
	 viewBox="0 0 38 38" style="enable-background:new 0 0 38 38;" xml:space="preserve">
<style type="text/css">
	.st0{fill:#FFFFFF;}
</style>
<title>amex-outline</title>
<path class="st0" d="M33.3,8.1c2.1,0,3.8,1.7,3.8,3.8v14.2c0,2.1-1.7,3.8-3.8,3.8l0,0H4.8c-2.1,0-3.8-1.7-3.8-3.8l0,0V11.9
	c0-2.1,1.7-3.8,3.8-3.8H33.3 M33.3,7.1H4.8C2.1,7.1,0,9.3,0,11.9v14.2c0,2.6,2.1,4.8,4.8,4.8h28.5c2.6,0,4.8-2.1,4.8-4.8V11.9
	C38,9.3,35.9,7.1,33.3,7.1z"/>
<path class="st0" d="M18.7,16.5H18l-1.5,3.2L15,16.5h-2v4.2l-1.9-4.2H9.2l-2.2,5h1.5l0.4-1.1h2.3l0.5,1.1h2.5v-3.6l1.7,3.6h1.2
	l1.5-3.3v3.3H20v-5H18.7L18.7,16.5z M9.4,19.3l0.7-1.7l0.7,1.7H9.4z"/>
<path class="st0" d="M31,16.5h-1.8L27.8,18l-1.4-1.5h-5.5v5h5.4l1.5-1.6l1.4,1.6H31L28.7,19L31,16.5z M25,21v-0.6h-2.8v-0.8H25v-1.1
	h-2.8v-0.8H25v-0.8l1.9,2.1L25,21z"/>
</svg>
