<?xml version="1.0" encoding="utf-8"?>
<!-- Generator: Adobe Illustrator 21.1.0, SVG Export Plug-In . SVG Version: 6.00 Build 0)  -->
<svg version="1.1" id="Layer_1" xmlns="http://www.w3.org/2000/svg" xmlns:xlink="http://www.w3.org/1999/xlink" x="0px" y="0px"
	 viewBox="0 0 38 38" style="enable-background:new 0 0 38 38;" xml:space="preserve">
<style type="text/css">
	.st0{fill:#FFFFFF;}
</style>
<title>card-default-outline</title>
<path class="st0" d="M33.3,8.1c2.1,0,3.8,1.7,3.8,3.8v14.2c0,2.1-1.7,3.8-3.8,3.8l0,0H4.8c-2.1,0-3.8-1.7-3.8-3.8l0,0V11.9
	c0-2.1,1.7-3.8,3.8-3.8H33.3 M33.3,7.1H4.8C2.1,7.1,0,9.3,0,11.9v14.2c0,2.6,2.1,4.8,4.8,4.8h28.5c2.6,0,4.8-2.1,4.8-4.8V11.9
	C38,9.3,35.9,7.1,33.3,7.1z"/>
<rect x="4.8" y="11.9" class="st0" width="28.5" height="3.6"/>
<rect x="25.5" y="20.2" class="st0" width="7.8" height="2.4"/>
</svg>
