<?xml version="1.0" encoding="utf-8"?>
<!-- Generator: Adobe Illustrator 21.1.0, SVG Export Plug-In . SVG Version: 6.00 Build 0)  -->
<svg version="1.1" id="Layer_1" xmlns="http://www.w3.org/2000/svg" xmlns:xlink="http://www.w3.org/1999/xlink" x="0px" y="0px"
	 viewBox="0 0 38 38" style="enable-background:new 0 0 38 38;" xml:space="preserve">
<style type="text/css">
	.st0{fill:#FFFFFF;}
</style>
<title>discover-outline</title>
<path class="st0" d="M33.3,8.1c2.1,0,3.8,1.7,3.8,3.8v14.2c0,2.1-1.7,3.8-3.8,3.8l0,0H4.8c-2.1,0-3.8-1.7-3.8-3.8l0,0V11.9
	c0-2.1,1.7-3.8,3.8-3.8H33.3 M33.3,7.1H4.8C2.1,7.1,0,9.3,0,11.9v14.2c0,2.6,2.1,4.8,4.8,4.8h28.5c2.6,0,4.8-2.1,4.8-4.8V11.9
	C38,9.3,35.9,7.1,33.3,7.1z"/>
<path class="st0" d="M20.3,16.1c-1.2,0-2.2,1.1-2.2,2.3c0,1.2,1.1,2.2,2.3,2.2c1.2,0,2.2-1,2.2-2.2C22.6,17.1,21.5,16.1,20.3,16.1
	C20.3,16.1,20.3,16.1,20.3,16.1z M8.5,20.4h0.8v-4.3H8.5V20.4z M7.1,16.7c-0.2-0.2-0.4-0.3-0.7-0.4c-0.3-0.1-0.5-0.1-0.8-0.1H3.8
	v4.3h1.6c0.3,0,0.5,0,0.8-0.1c0.3-0.1,0.5-0.2,0.7-0.4c0.2-0.2,0.4-0.4,0.6-0.7c0.1-0.3,0.2-0.6,0.2-1c0-0.3-0.1-0.6-0.2-0.9
	C7.5,17.1,7.3,16.9,7.1,16.7z M6.8,19c-0.1,0.2-0.2,0.3-0.4,0.4c-0.2,0.1-0.4,0.2-0.6,0.3c-0.2,0.1-0.5,0.1-0.7,0.1H4.6v-2.9h0.7
	c0.2,0,0.4,0,0.7,0.1c0.2,0,0.4,0.1,0.5,0.3c0.1,0.1,0.3,0.3,0.3,0.5C6.9,17.9,7,18.1,7,18.3C7,18.5,6.9,18.8,6.8,19z M12.5,18.2
	c-0.2-0.1-0.3-0.2-0.5-0.2l-0.5-0.2c-0.1,0-0.3-0.1-0.4-0.2c-0.1-0.1-0.2-0.2-0.1-0.3c0-0.1,0-0.2,0.1-0.3c0-0.1,0.1-0.1,0.2-0.2
	c0.1,0,0.1-0.1,0.2-0.1c0.1,0,0.2,0,0.3,0c0.2,0,0.3,0,0.4,0.1c0.1,0.1,0.2,0.1,0.3,0.3l0.6-0.6c-0.2-0.2-0.4-0.3-0.6-0.3
	c-0.2-0.1-0.4-0.1-0.7-0.1c-0.2,0-0.4,0-0.6,0.1c-0.2,0-0.4,0.1-0.5,0.2c-0.1,0.1-0.3,0.2-0.4,0.4c-0.1,0.2-0.1,0.4-0.1,0.6
	c0,0.2,0,0.4,0.1,0.6c0.1,0.1,0.2,0.3,0.4,0.4c0.2,0.1,0.3,0.2,0.5,0.2l0.5,0.2c0.1,0,0.3,0.1,0.4,0.2c0.1,0.1,0.2,0.2,0.1,0.4
	c0,0.1,0,0.2-0.1,0.3c0,0.1-0.1,0.1-0.2,0.2c-0.1,0-0.2,0.1-0.3,0.1c-0.1,0-0.2,0-0.3,0c-0.2,0-0.3,0-0.5-0.1
	c-0.1-0.1-0.3-0.2-0.4-0.3L10,20c0.2,0.2,0.4,0.4,0.6,0.4c0.3,0.1,0.5,0.1,0.8,0.1c0.2,0,0.4,0,0.6-0.1c0.2-0.1,0.4-0.1,0.5-0.3
	c0.1-0.1,0.3-0.3,0.4-0.4c0.1-0.2,0.1-0.4,0.1-0.6c0-0.2,0-0.4-0.1-0.6C12.8,18.4,12.6,18.3,12.5,18.2L12.5,18.2z M28.1,18.6h2v-0.7
	h-2v-1h2.1v-0.7h-2.9v4.3h3v-0.7H28L28.1,18.6z M33.2,18.6c0.3,0,0.6-0.2,0.8-0.4c0.3-0.4,0.3-0.9,0.1-1.4c-0.1-0.2-0.2-0.3-0.4-0.4
	c-0.2-0.1-0.3-0.2-0.5-0.2c-0.2,0-0.4-0.1-0.6-0.1H31v4.3h0.8v-1.8h0.6l1,1.8h0.9L33.2,18.6z M32.8,18h-0.3h-0.6v-1.2h0.7h0.3
	c0.1,0,0.2,0,0.3,0.1c0.1,0,0.2,0.1,0.2,0.2c0.1,0.1,0.1,0.2,0.1,0.3c0,0.1,0,0.2-0.1,0.3c-0.1,0.1-0.1,0.1-0.2,0.2
	C33,17.9,32.9,18,32.8,18z M16.4,19.7c-0.2,0.1-0.3,0.1-0.5,0.1c-0.2,0-0.4,0-0.6-0.1c-0.2-0.1-0.3-0.2-0.5-0.3
	c-0.1-0.1-0.2-0.3-0.3-0.5c-0.1-0.2-0.1-0.4-0.1-0.6c0-0.2,0-0.4,0.1-0.6c0.1-0.2,0.2-0.3,0.3-0.5c0.1-0.1,0.3-0.2,0.5-0.3
	c0.2-0.1,0.4-0.1,0.6-0.1c0.4,0,0.7,0.1,0.9,0.4l0.6-0.4c-0.2-0.2-0.4-0.4-0.7-0.5c-0.3-0.1-0.5-0.2-0.8-0.1c-0.3,0-0.6,0.1-0.9,0.2
	c-0.3,0.1-0.5,0.3-0.7,0.5c-0.2,0.2-0.4,0.4-0.5,0.7c-0.1,0.3-0.2,0.6-0.2,0.9c0,0.3,0.1,0.6,0.2,0.9c0.1,0.3,0.3,0.5,0.5,0.7
	c0.2,0.2,0.5,0.4,0.7,0.5c0.3,0.1,0.6,0.2,0.9,0.2c0.3,0,0.6-0.1,0.9-0.2c0.3-0.1,0.5-0.3,0.7-0.6l-0.6-0.4
	C16.7,19.5,16.6,19.6,16.4,19.7z M24.7,19.4l-1.2-3.2h-0.9l1.7,4.3H25l1.8-4.3H26L24.7,19.4z"/>
</svg>
