<?xml version="1.0" encoding="utf-8"?>
<!-- Generator: Adobe Illustrator 21.1.0, SVG Export Plug-In . SVG Version: 6.00 Build 0)  -->
<svg version="1.1" id="Layer_1" xmlns="http://www.w3.org/2000/svg" xmlns:xlink="http://www.w3.org/1999/xlink" x="0px" y="0px"
	 viewBox="0 0 38 38" style="enable-background:new 0 0 38 38;" xml:space="preserve">
<style type="text/css">
	.st0{fill:#FFFFFF;}
</style>
<title>mastercard-outline</title>
<path class="st0" d="M33.3,8.1c2.1,0,3.8,1.7,3.8,3.8v14.2c0,2.1-1.7,3.8-3.8,3.8l0,0H4.8c-2.1,0-3.8-1.7-3.8-3.8l0,0V11.9
	c0-2.1,1.7-3.8,3.8-3.8H33.3 M33.3,7.1H4.8C2.1,7.1,0,9.3,0,11.9v14.2c0,2.6,2.1,4.8,4.8,4.8h28.5c2.6,0,4.8-2.1,4.8-4.8V11.9
	C38,9.3,35.9,7.1,33.3,7.1z"/>
<path class="st0" d="M18.1,15.1c-2.2-1.5-5.1-0.9-6.6,1.2s-0.9,5.1,1.2,6.6c1.6,1.1,3.7,1.1,5.4,0C16.1,20.7,16.1,17.3,18.1,15.1z"
	/>
<circle class="st0" cx="22.6" cy="19" r="4.8"/>
</svg>
