<?xml version="1.0" encoding="utf-8"?>
<!-- Generator: Adobe Illustrator 21.1.0, SVG Export Plug-In . SVG Version: 6.00 Build 0)  -->
<svg version="1.1" id="Layer_1" xmlns="http://www.w3.org/2000/svg" xmlns:xlink="http://www.w3.org/1999/xlink" x="0px" y="0px"
	 viewBox="0 0 38 38" style="enable-background:new 0 0 38 38;" xml:space="preserve">
<style type="text/css">
	.st0{fill:#FFFFFF;}
</style>
<title>visa-outline</title>
<path class="st0" d="M33.3,8.1c2.1,0,3.8,1.7,3.8,3.8v14.2c0,2.1-1.7,3.8-3.8,3.8l0,0H4.8c-2.1,0-3.8-1.7-3.8-3.8l0,0V11.9
	c0-2.1,1.7-3.8,3.8-3.8H33.3 M33.3,7.1H4.8C2.1,7.1,0,9.3,0,11.9v14.2c0,2.6,2.1,4.8,4.8,4.8h28.5c2.6,0,4.8-2.1,4.8-4.8V11.9
	C38,9.3,35.9,7.1,33.3,7.1z"/>
<path class="st0" d="M15.8,15.6l-2.9,6.9H11L9.6,17c0-0.3-0.2-0.5-0.4-0.6c-0.6-0.3-1.1-0.5-1.8-0.6v-0.2h3c0.4,0,0.8,0.3,0.8,0.7
	l0.8,4l1.8-4.7L15.8,15.6z M23.1,20.2c0-1.8-2.5-1.9-2.5-2.7c0-0.3,0.2-0.5,0.8-0.6c0.6-0.1,1.2,0.1,1.7,0.3l0.3-1.5
	c-0.5-0.2-1.1-0.3-1.7-0.3c-1.8,0-3,0.9-3,2.3c0,1,0.9,1.5,1.5,1.9s0.9,0.5,0.9,0.9c0,0.5-0.5,0.7-1.1,0.7c-0.6,0-1.3-0.1-1.8-0.4
	L18,22.2c0.6,0.3,1.3,0.4,2,0.4C21.9,22.6,23.1,21.7,23.1,20.2 M27.7,22.5h1.6l-1.4-6.9h-1.5c-0.3,0-0.6,0.2-0.8,0.5L23,22.5h1.9
	l0.4-1h2.3L27.7,22.5z M25.7,20l0.9-2.6l0.6,2.6L25.7,20z M18.3,15.6l-1.5,6.9h-1.7l1.5-6.9L18.3,15.6z"/>
</svg>
