<svg xmlns="http://www.w3.org/2000/svg" width="34.1" height="57.5" viewBox="0 0 34.1 57.5"><defs><style>.a{fill:#ff5252;}.b{fill:#fff;}.c{fill:#ffd9d9;}</style></defs><title>1</title><path class="a" d="M56.7,301a.2.2,0,0,1,0,.4.8.8,0,0,1-.7,0,.2.2,0,0,1,0-.4A.8.8,0,0,1,56.7,301Z" transform="translate(-44.8 -251.2)"/><path class="a" d="M58.6,299.9a.2.2,0,0,1,0,.4.8.8,0,0,1-.7,0,.2.2,0,0,1,0-.4A.8.8,0,0,1,58.6,299.9Z" transform="translate(-44.8 -251.2)"/><path class="a" d="M56.7,298.9a.2.2,0,0,1,0,.4.8.8,0,0,1-.7,0,.2.2,0,0,1,0-.4A.8.8,0,0,1,56.7,298.9Z" transform="translate(-44.8 -251.2)"/><path class="a" d="M69.6,308.2a.2.2,0,0,1,0,.4.8.8,0,0,1-.7,0,.2.2,0,0,1,0-.4A.8.8,0,0,1,69.6,308.2Z" transform="translate(-44.8 -251.2)"/><path class="a" d="M71.4,307.2a.2.2,0,0,1,0,.4.8.8,0,0,1-.7,0,.2.2,0,0,1,0-.4A.8.8,0,0,1,71.4,307.2Z" transform="translate(-44.8 -251.2)"/><path class="a" d="M73.3,306.1a.2.2,0,0,1,0,.4.8.8,0,0,1-.7,0,.2.2,0,0,1,0-.4A.8.8,0,0,1,73.3,306.1Z" transform="translate(-44.8 -251.2)"/><path class="a" d="M75.1,305.1a.2.2,0,0,1,0,.4.8.8,0,0,1-.7,0,.2.2,0,0,1,0-.4A.8.8,0,0,1,75.1,305.1Z" transform="translate(-44.8 -251.2)"/><path class="a" d="M76.9,304a.2.2,0,0,1,0,.4.8.8,0,0,1-.7,0,.2.2,0,0,1,0-.4A.8.8,0,0,1,76.9,304Z" transform="translate(-44.8 -251.2)"/><path class="a" d="M78.7,302.9a.2.2,0,0,1,0,.4.8.8,0,0,1-.7,0,.2.2,0,0,1,0-.4A.8.8,0,0,1,78.7,302.9Z" transform="translate(-44.8 -251.2)"/><path class="a" d="M65.9,308.2a.2.2,0,0,1,0,.4.8.8,0,0,1-.7,0,.2.2,0,0,1,0-.4A.8.8,0,0,1,65.9,308.2Z" transform="translate(-44.8 -251.2)"/><path class="a" d="M67.8,307.2a.2.2,0,0,1,0,.4.8.8,0,0,1-.7,0,.2.2,0,0,1,0-.4A.8.8,0,0,1,67.8,307.2Z" transform="translate(-44.8 -251.2)"/><path class="a" d="M69.6,306.1a.2.2,0,0,1,0,.4.8.8,0,0,1-.7,0,.2.2,0,0,1,0-.4A.8.8,0,0,1,69.6,306.1Z" transform="translate(-44.8 -251.2)"/><path class="a" d="M71.4,305.1a.2.2,0,0,1,0,.4.8.8,0,0,1-.7,0,.2.2,0,0,1,0-.4A.8.8,0,0,1,71.4,305.1Z" transform="translate(-44.8 -251.2)"/><path class="a" d="M73.3,304a.2.2,0,0,1,0,.4.8.8,0,0,1-.7,0,.2.2,0,0,1,0-.4A.8.8,0,0,1,73.3,304Z" transform="translate(-44.8 -251.2)"/><path class="a" d="M75.1,302.9a.2.2,0,0,1,0,.4.8.8,0,0,1-.7,0,.2.2,0,0,1,0-.4A.8.8,0,0,1,75.1,302.9Z" transform="translate(-44.8 -251.2)"/><path class="a" d="M76.9,301.9a.2.2,0,0,1,0,.4.8.8,0,0,1-.7,0,.2.2,0,0,1,0-.4A.8.8,0,0,1,76.9,301.9Z" transform="translate(-44.8 -251.2)"/><path class="a" d="M78.7,300.8a.2.2,0,0,1,0,.4.8.8,0,0,1-.7,0,.2.2,0,0,1,0-.4A.8.8,0,0,1,78.7,300.8Z" transform="translate(-44.8 -251.2)"/><path class="a" d="M64.1,307.2a.2.2,0,0,1,0,.4.8.8,0,0,1-.7,0,.2.2,0,0,1,0-.4A.8.8,0,0,1,64.1,307.2Z" transform="translate(-44.8 -251.2)"/><path class="a" d="M65.9,306.1a.2.2,0,0,1,0,.4.8.8,0,0,1-.7,0,.2.2,0,0,1,0-.4A.8.8,0,0,1,65.9,306.1Z" transform="translate(-44.8 -251.2)"/><path class="a" d="M67.8,305.1a.2.2,0,0,1,0,.4.8.8,0,0,1-.7,0,.2.2,0,0,1,0-.4A.8.8,0,0,1,67.8,305.1Z" transform="translate(-44.8 -251.2)"/><path class="a" d="M69.6,304a.2.2,0,0,1,0,.4.8.8,0,0,1-.7,0,.2.2,0,0,1,0-.4A.8.8,0,0,1,69.6,304Z" transform="translate(-44.8 -251.2)"/><path class="a" d="M71.4,302.9a.2.2,0,0,1,0,.4.8.8,0,0,1-.7,0,.2.2,0,0,1,0-.4A.8.8,0,0,1,71.4,302.9Z" transform="translate(-44.8 -251.2)"/><path class="a" d="M73.3,301.9a.2.2,0,0,1,0,.4.8.8,0,0,1-.7,0,.2.2,0,0,1,0-.4A.8.8,0,0,1,73.3,301.9Z" transform="translate(-44.8 -251.2)"/><path class="a" d="M75.1,300.8a.2.2,0,0,1,0,.4.8.8,0,0,1-.7,0,.2.2,0,0,1,0-.4A.8.8,0,0,1,75.1,300.8Z" transform="translate(-44.8 -251.2)"/><path class="a" d="M76.9,299.8a.2.2,0,0,1,0,.4.8.8,0,0,1-.7,0,.2.2,0,0,1,0-.4A.8.8,0,0,1,76.9,299.8Z" transform="translate(-44.8 -251.2)"/><path class="a" d="M78.7,298.7a.2.2,0,0,1,0,.4.8.8,0,0,1-.7,0,.2.2,0,0,1,0-.4A.8.8,0,0,1,78.7,298.7Z" transform="translate(-44.8 -251.2)"/><path class="a" d="M62.3,306.1a.2.2,0,0,1,0,.4.8.8,0,0,1-.7,0,.2.2,0,0,1,0-.4A.8.8,0,0,1,62.3,306.1Z" transform="translate(-44.8 -251.2)"/><path class="a" d="M64.1,305a.2.2,0,0,1,0,.4.8.8,0,0,1-.7,0,.2.2,0,0,1,0-.4A.8.8,0,0,1,64.1,305Z" transform="translate(-44.8 -251.2)"/><path class="a" d="M65.9,304a.2.2,0,0,1,0,.4.8.8,0,0,1-.7,0,.2.2,0,0,1,0-.4A.8.8,0,0,1,65.9,304Z" transform="translate(-44.8 -251.2)"/><path class="a" d="M67.8,302.9a.2.2,0,0,1,0,.4.8.8,0,0,1-.7,0,.2.2,0,0,1,0-.4A.8.8,0,0,1,67.8,302.9Z" transform="translate(-44.8 -251.2)"/><path class="a" d="M69.6,301.9a.2.2,0,0,1,0,.4.8.8,0,0,1-.7,0,.2.2,0,0,1,0-.4A.8.8,0,0,1,69.6,301.9Z" transform="translate(-44.8 -251.2)"/><path class="a" d="M71.4,300.8a.2.2,0,0,1,0,.4.8.8,0,0,1-.7,0,.2.2,0,0,1,0-.4A.8.8,0,0,1,71.4,300.8Z" transform="translate(-44.8 -251.2)"/><path class="a" d="M73.2,299.8a.2.2,0,0,1,0,.4.8.8,0,0,1-.7,0,.2.2,0,0,1,0-.4A.8.8,0,0,1,73.2,299.8Z" transform="translate(-44.8 -251.2)"/><path class="a" d="M75.1,298.7a.2.2,0,0,1,0,.4.8.8,0,0,1-.7,0,.2.2,0,0,1,0-.4A.8.8,0,0,1,75.1,298.7Z" transform="translate(-44.8 -251.2)"/><path class="a" d="M76.9,297.7a.2.2,0,0,1,0,.4.8.8,0,0,1-.7,0,.2.2,0,0,1,0-.4A.8.8,0,0,1,76.9,297.7Z" transform="translate(-44.8 -251.2)"/><path class="a" d="M60.5,305a.2.2,0,0,1,0,.4.8.8,0,0,1-.7,0,.2.2,0,0,1,0-.4A.8.8,0,0,1,60.5,305Z" transform="translate(-44.8 -251.2)"/><path class="a" d="M62.3,304a.2.2,0,0,1,0,.4.8.8,0,0,1-.7,0,.2.2,0,0,1,0-.4A.8.8,0,0,1,62.3,304Z" transform="translate(-44.8 -251.2)"/><path class="a" d="M64.1,302.9a.2.2,0,0,1,0,.4.8.8,0,0,1-.7,0,.2.2,0,0,1,0-.4A.8.8,0,0,1,64.1,302.9Z" transform="translate(-44.8 -251.2)"/><path class="a" d="M58.6,304a.2.2,0,0,1,0,.4.8.8,0,0,1-.7,0,.2.2,0,0,1,0-.4A.8.8,0,0,1,58.6,304Z" transform="translate(-44.8 -251.2)"/><path class="a" d="M60.5,302.9a.2.2,0,0,1,0,.4.8.8,0,0,1-.7,0,.2.2,0,0,1,0-.4A.8.8,0,0,1,60.5,302.9Z" transform="translate(-44.8 -251.2)"/><path class="a" d="M62.3,301.9a.2.2,0,0,1,0,.4.8.8,0,0,1-.7,0,.2.2,0,0,1,0-.4A.8.8,0,0,1,62.3,301.9Z" transform="translate(-44.8 -251.2)"/><path class="a" d="M56.8,302.9a.2.2,0,0,1,0,.4.8.8,0,0,1-.7,0,.2.2,0,0,1,0-.4A.8.8,0,0,1,56.8,302.9Z" transform="translate(-44.8 -251.2)"/><path class="a" d="M58.6,301.9a.2.2,0,0,1,0,.4.8.8,0,0,1-.7,0,.2.2,0,0,1,0-.4A.8.8,0,0,1,58.6,301.9Z" transform="translate(-44.8 -251.2)"/><path class="a" d="M60.5,300.8a.2.2,0,0,1,0,.4.8.8,0,0,1-.7,0,.2.2,0,0,1,0-.4A.8.8,0,0,1,60.5,300.8Z" transform="translate(-44.8 -251.2)"/><polygon class="b" points="20.7 11.2 30.8 5.3 22.4 0.4 12.4 6.4 20.7 11.2"/><path class="b" d="M65.5,302.2l-9.4-5.5V275.7q0-3.8.1-6.9a9.6,9.6,0,0,1-2.2,1.3l-3.9,1.5-4.8-9.6,11.8-4.3,8.4,4.8Z" transform="translate(-44.8 -251.2)"/><polygon class="b" points="10.6 4.7 0.5 10.7 12.4 6.4 22.4 0.4 10.6 4.7"/><polygon class="c" points="30.8 8.4 22.4 3.5 11.5 7.5 1.4 13.5 12.4 9.5 20.7 14.3 30.8 8.4"/><path class="a" d="M67.2,251.2H67l-11.8,4.3-10.1,5.9h-.4L50,272l4.2-1.6,1.6-.9c-.1,1.9-.1,3.9-.1,6.2v21.3l9.8,5.7,10.4-6.1V256.3Zm-11.7,5.1,8-2.9L57,257.2l-.6.2L49,260.1Zm9.6,45.3-8.7-5V275.7c0-2.5,0-4.9.1-6.9v-.8l-.7.5a9.2,9.2,0,0,1-2.1,1.2L50.3,271l-4.5-9L57.1,258l8,4.6Zm-7.3-44,9.3-5.5,7.6,4.4-3.2,1.9L65.5,262Z" transform="translate(-44.8 -251.2)"/></svg>