<svg xmlns="http://www.w3.org/2000/svg" width="50.9" height="47.7" viewBox="0 0 50.9 47.7"><defs><style>.a{fill:#ff5252;}.b{fill:#fff;}.c{fill:#ffd9d9;}</style></defs><title>2</title><path class="a" d="M108.8,301.1a.2.2,0,0,1,0,.4.8.8,0,0,1-.7,0,.2.2,0,0,1,0-.4A.8.8,0,0,1,108.8,301.1Z" transform="translate(-95.5 -259.9)"/><path class="a" d="M110.6,300a.2.2,0,0,1,0,.4.8.8,0,0,1-.7,0,.2.2,0,0,1,0-.4A.8.8,0,0,1,110.6,300Z" transform="translate(-95.5 -259.9)"/><path class="a" d="M112.4,299a.2.2,0,0,1,0,.4.8.8,0,0,1-.7,0,.2.2,0,0,1,0-.4A.8.8,0,0,1,112.4,299Z" transform="translate(-95.5 -259.9)"/><path class="a" d="M107,300a.2.2,0,0,1,0,.4.8.8,0,0,1-.7,0,.2.2,0,0,1,0-.4A.8.8,0,0,1,107,300Z" transform="translate(-95.5 -259.9)"/><path class="a" d="M108.8,299a.2.2,0,0,1,0,.4.8.8,0,0,1-.7,0,.2.2,0,0,1,0-.4A.8.8,0,0,1,108.8,299Z" transform="translate(-95.5 -259.9)"/><path class="a" d="M110.6,298a.2.2,0,0,1,0,.4.8.8,0,0,1-.7,0,.2.2,0,0,1,0-.4A.8.8,0,0,1,110.6,298Z" transform="translate(-95.5 -259.9)"/><path class="a" d="M105.3,299a.2.2,0,0,1,0,.4.8.8,0,0,1-.7,0,.2.2,0,0,1,0-.4A.8.8,0,0,1,105.3,299Z" transform="translate(-95.5 -259.9)"/><path class="a" d="M107,298a.2.2,0,0,1,0,.4.8.8,0,0,1-.7,0,.2.2,0,0,1,0-.4A.8.8,0,0,1,107,298Z" transform="translate(-95.5 -259.9)"/><path class="a" d="M108.8,296.9a.2.2,0,0,1,0,.4.8.8,0,0,1-.7,0,.2.2,0,0,1,0-.4A.8.8,0,0,1,108.8,296.9Z" transform="translate(-95.5 -259.9)"/><path class="a" d="M110.6,296.3a.8.8,0,0,1-.7,0,.2.2,0,0,1,0-.4C110.1,295.8,110.8,296.2,110.6,296.3Z" transform="translate(-95.5 -259.9)"/><path class="a" d="M103.5,298a.2.2,0,0,1,0,.4.8.8,0,0,1-.7,0,.2.2,0,0,1,0-.4A.8.8,0,0,1,103.5,298Z" transform="translate(-95.5 -259.9)"/><path class="a" d="M105.3,296.9a.2.2,0,0,1,0,.4.8.8,0,0,1-.7,0,.2.2,0,0,1,0-.4A.8.8,0,0,1,105.3,296.9Z" transform="translate(-95.5 -259.9)"/><path class="a" d="M107,295.9a.2.2,0,0,1,0,.4.8.8,0,0,1-.7,0,.2.2,0,0,1,0-.4A.8.8,0,0,1,107,295.9Z" transform="translate(-95.5 -259.9)"/><path class="a" d="M108.8,295.3a.8.8,0,0,1-.7,0,.2.2,0,0,1,0-.4C108.3,294.8,109,295.2,108.8,295.3Z" transform="translate(-95.5 -259.9)"/><path class="a" d="M101.7,297a.2.2,0,0,1,0,.4.8.8,0,0,1-.7,0,.2.2,0,0,1,0-.4A.8.8,0,0,1,101.7,297Z" transform="translate(-95.5 -259.9)"/><path class="a" d="M103.5,295.9a.2.2,0,0,1,0,.4.8.8,0,0,1-.7,0,.2.2,0,0,1,0-.4A.8.8,0,0,1,103.5,295.9Z" transform="translate(-95.5 -259.9)"/><path class="a" d="M105.3,294.9a.2.2,0,0,1,0,.4.8.8,0,0,1-.7,0,.2.2,0,0,1,0-.4A.8.8,0,0,1,105.3,294.9Z" transform="translate(-95.5 -259.9)"/><path class="a" d="M107,294.3a.8.8,0,0,1-.7,0,.2.2,0,0,1,0-.4C106.5,293.8,107.2,294.1,107,294.3Z" transform="translate(-95.5 -259.9)"/><path class="a" d="M99.9,295.9a.2.2,0,0,1,0,.4.8.8,0,0,1-.7,0,.2.2,0,0,1,0-.4A.8.8,0,0,1,99.9,295.9Z" transform="translate(-95.5 -259.9)"/><path class="a" d="M101.7,294.9a.2.2,0,0,1,0,.4.8.8,0,0,1-.7,0,.2.2,0,0,1,0-.4A.8.8,0,0,1,101.7,294.9Z" transform="translate(-95.5 -259.9)"/><path class="a" d="M103.5,293.9a.2.2,0,0,1,0,.4.8.8,0,0,1-.7,0,.2.2,0,0,1,0-.4A.8.8,0,0,1,103.5,293.9Z" transform="translate(-95.5 -259.9)"/><path class="a" d="M105.2,293.2a.8.8,0,0,1-.7,0,.2.2,0,0,1,0-.4C104.7,292.7,105.4,293.1,105.2,293.2Z" transform="translate(-95.5 -259.9)"/><path class="a" d="M98.1,294.9a.2.2,0,0,1,0,.4.8.8,0,0,1-.7,0,.2.2,0,0,1,0-.4A.8.8,0,0,1,98.1,294.9Z" transform="translate(-95.5 -259.9)"/><path class="a" d="M99.9,293.9a.2.2,0,0,1,0,.4.8.8,0,0,1-.7,0,.2.2,0,0,1,0-.4A.8.8,0,0,1,99.9,293.9Z" transform="translate(-95.5 -259.9)"/><path class="a" d="M101.7,292.8a.2.2,0,0,1,0,.4.8.8,0,0,1-.7,0,.2.2,0,0,1,0-.4A.8.8,0,0,1,101.7,292.8Z" transform="translate(-95.5 -259.9)"/><path class="a" d="M96.3,293.9a.2.2,0,0,1,0,.4.8.8,0,0,1-.7,0,.2.2,0,0,1,0-.4A.8.8,0,0,1,96.3,293.9Z" transform="translate(-95.5 -259.9)"/><path class="a" d="M98.1,292.8a.2.2,0,0,1,0,.4.8.8,0,0,1-.7,0,.2.2,0,0,1,0-.4A.8.8,0,0,1,98.1,292.8Z" transform="translate(-95.5 -259.9)"/><path class="a" d="M99.9,291.8a.2.2,0,0,1,0,.4.8.8,0,0,1-.7,0,.2.2,0,0,1,0-.4A.8.8,0,0,1,99.9,291.8Z" transform="translate(-95.5 -259.9)"/><path class="a" d="M101.7,291.2a.8.8,0,0,1-.7,0,.2.2,0,0,1,0-.4C101.2,290.7,101.9,291.1,101.7,291.2Z" transform="translate(-95.5 -259.9)"/><path class="a" d="M96.3,291.8a.2.2,0,0,1,0,.4.8.8,0,0,1-.7,0,.2.2,0,0,1,0-.4A.8.8,0,0,1,96.3,291.8Z" transform="translate(-95.5 -259.9)"/><path class="a" d="M98.1,290.8a.2.2,0,0,1,0,.4.8.8,0,0,1-.7,0,.2.2,0,0,1,0-.4A.8.8,0,0,1,98.1,290.8Z" transform="translate(-95.5 -259.9)"/><path class="a" d="M96.3,289.7a.2.2,0,0,1,0,.4.8.8,0,0,1-.7,0,.2.2,0,0,1,0-.4A.8.8,0,0,1,96.3,289.7Z" transform="translate(-95.5 -259.9)"/><path class="a" d="M123.2,307.1a.2.2,0,0,1,0,.4.8.8,0,0,1-.7,0,.2.2,0,0,1,0-.4A.8.8,0,0,1,123.2,307.1Z" transform="translate(-95.5 -259.9)"/><path class="a" d="M124.9,306.1a.2.2,0,0,1,0,.4.8.8,0,0,1-.7,0,.2.2,0,0,1,0-.4A.8.8,0,0,1,124.9,306.1Z" transform="translate(-95.5 -259.9)"/><path class="a" d="M126.7,305a.2.2,0,0,1,0,.4.8.8,0,0,1-.7,0,.2.2,0,0,1,0-.4A.8.8,0,0,1,126.7,305Z" transform="translate(-95.5 -259.9)"/><path class="a" d="M128.5,304a.2.2,0,0,1,0,.4.8.8,0,0,1-.7,0,.2.2,0,0,1,0-.4A.8.8,0,0,1,128.5,304Z" transform="translate(-95.5 -259.9)"/><path class="a" d="M119.6,307.1a.2.2,0,0,1,0,.4.8.8,0,0,1-.7,0,.2.2,0,0,1,0-.4A.8.8,0,0,1,119.6,307.1Z" transform="translate(-95.5 -259.9)"/><path class="a" d="M121.4,306.1a.2.2,0,0,1,0,.4.8.8,0,0,1-.7,0,.2.2,0,0,1,0-.4A.8.8,0,0,1,121.4,306.1Z" transform="translate(-95.5 -259.9)"/><path class="a" d="M123.2,305a.2.2,0,0,1,0,.4.8.8,0,0,1-.7,0,.2.2,0,0,1,0-.4A.8.8,0,0,1,123.2,305Z" transform="translate(-95.5 -259.9)"/><path class="a" d="M124.9,304a.2.2,0,0,1,0,.4.8.8,0,0,1-.7,0,.2.2,0,0,1,0-.4A.8.8,0,0,1,124.9,304Z" transform="translate(-95.5 -259.9)"/><path class="a" d="M126.7,303a.2.2,0,0,1,0,.4.8.8,0,0,1-.7,0,.2.2,0,0,1,0-.4A.8.8,0,0,1,126.7,303Z" transform="translate(-95.5 -259.9)"/><path class="a" d="M128.5,301.9a.2.2,0,0,1,0,.4.8.8,0,0,1-.7,0,.2.2,0,0,1,0-.4A.8.8,0,0,1,128.5,301.9Z" transform="translate(-95.5 -259.9)"/><path class="a" d="M117.8,306.1a.2.2,0,0,1,0,.4.8.8,0,0,1-.7,0,.2.2,0,0,1,0-.4A.8.8,0,0,1,117.8,306.1Z" transform="translate(-95.5 -259.9)"/><path class="a" d="M119.6,305a.2.2,0,0,1,0,.4.8.8,0,0,1-.7,0,.2.2,0,0,1,0-.4A.8.8,0,0,1,119.6,305Z" transform="translate(-95.5 -259.9)"/><path class="a" d="M121.4,304a.2.2,0,0,1,0,.4.8.8,0,0,1-.7,0,.2.2,0,0,1,0-.4A.8.8,0,0,1,121.4,304Z" transform="translate(-95.5 -259.9)"/><path class="a" d="M123.2,303a.2.2,0,0,1,0,.4.8.8,0,0,1-.7,0,.2.2,0,0,1,0-.4A.8.8,0,0,1,123.2,303Z" transform="translate(-95.5 -259.9)"/><path class="a" d="M124.9,301.9a.2.2,0,0,1,0,.4.8.8,0,0,1-.7,0,.2.2,0,0,1,0-.4A.8.8,0,0,1,124.9,301.9Z" transform="translate(-95.5 -259.9)"/><path class="a" d="M126.7,300.9a.2.2,0,0,1,0,.4.8.8,0,0,1-.7,0,.2.2,0,0,1,0-.4A.8.8,0,0,1,126.7,300.9Z" transform="translate(-95.5 -259.9)"/><path class="a" d="M128.5,299.9a.2.2,0,0,1,0,.4.8.8,0,0,1-.7,0,.2.2,0,0,1,0-.4A.8.8,0,0,1,128.5,299.9Z" transform="translate(-95.5 -259.9)"/><path class="a" d="M116,305a.2.2,0,0,1,0,.4.8.8,0,0,1-.7,0,.2.2,0,0,1,0-.4A.8.8,0,0,1,116,305Z" transform="translate(-95.5 -259.9)"/><path class="a" d="M117.8,304a.2.2,0,0,1,0,.4.8.8,0,0,1-.7,0,.2.2,0,0,1,0-.4A.8.8,0,0,1,117.8,304Z" transform="translate(-95.5 -259.9)"/><path class="a" d="M119.6,303a.2.2,0,0,1,0,.4.8.8,0,0,1-.7,0,.2.2,0,0,1,0-.4A.8.8,0,0,1,119.6,303Z" transform="translate(-95.5 -259.9)"/><path class="a" d="M121.4,301.9a.2.2,0,0,1,0,.4.8.8,0,0,1-.7,0,.2.2,0,0,1,0-.4A.8.8,0,0,1,121.4,301.9Z" transform="translate(-95.5 -259.9)"/><path class="a" d="M123.1,300.9a.2.2,0,0,1,0,.4.8.8,0,0,1-.7,0,.2.2,0,0,1,0-.4A.8.8,0,0,1,123.1,300.9Z" transform="translate(-95.5 -259.9)"/><path class="a" d="M124.9,299.9a.2.2,0,0,1,0,.4.8.8,0,0,1-.7,0,.2.2,0,0,1,0-.4A.8.8,0,0,1,124.9,299.9Z" transform="translate(-95.5 -259.9)"/><path class="a" d="M126.7,298.8a.2.2,0,0,1,0,.4.8.8,0,0,1-.7,0,.2.2,0,0,1,0-.4A.8.8,0,0,1,126.7,298.8Z" transform="translate(-95.5 -259.9)"/><path class="a" d="M128.5,297.8a.2.2,0,0,1,0,.4.8.8,0,0,1-.7,0,.2.2,0,0,1,0-.4A.8.8,0,0,1,128.5,297.8Z" transform="translate(-95.5 -259.9)"/><path class="a" d="M114.2,304a.2.2,0,0,1,0,.4.8.8,0,0,1-.7,0,.2.2,0,0,1,0-.4A.8.8,0,0,1,114.2,304Z" transform="translate(-95.5 -259.9)"/><path class="a" d="M116,303a.2.2,0,0,1,0,.4.8.8,0,0,1-.7,0,.2.2,0,0,1,0-.4A.8.8,0,0,1,116,303Z" transform="translate(-95.5 -259.9)"/><path class="a" d="M117.8,301.9a.2.2,0,0,1,0,.4.8.8,0,0,1-.7,0,.2.2,0,0,1,0-.4A.8.8,0,0,1,117.8,301.9Z" transform="translate(-95.5 -259.9)"/><path class="a" d="M112.5,303a.2.2,0,0,1,0,.4.8.8,0,0,1-.7,0,.2.2,0,0,1,0-.4A.8.8,0,0,1,112.5,303Z" transform="translate(-95.5 -259.9)"/><path class="a" d="M114.2,301.9a.2.2,0,0,1,0,.4.8.8,0,0,1-.7,0,.2.2,0,0,1,0-.4A.8.8,0,0,1,114.2,301.9Z" transform="translate(-95.5 -259.9)"/><path class="a" d="M116,300.9a.2.2,0,0,1,0,.4.8.8,0,0,1-.7,0,.2.2,0,0,1,0-.4A.8.8,0,0,1,116,300.9Z" transform="translate(-95.5 -259.9)"/><path class="a" d="M110.7,301.9a.2.2,0,0,1,0,.4.8.8,0,0,1-.7,0,.2.2,0,0,1,0-.4A.8.8,0,0,1,110.7,301.9Z" transform="translate(-95.5 -259.9)"/><path class="a" d="M112.5,300.9a.2.2,0,0,1,0,.4.8.8,0,0,1-.7,0,.2.2,0,0,1,0-.4A.8.8,0,0,1,112.5,300.9Z" transform="translate(-95.5 -259.9)"/><path class="a" d="M114.2,299.9a.2.2,0,0,1,0,.4.8.8,0,0,1-.7,0,.2.2,0,0,1,0-.4A.8.8,0,0,1,114.2,299.9Z" transform="translate(-95.5 -259.9)"/><path class="a" d="M139.2,295.8a.2.2,0,0,1,0,.4.8.8,0,0,1-.7,0,.2.2,0,0,1,0-.4A.8.8,0,0,1,139.2,295.8Z" transform="translate(-95.5 -259.9)"/><path class="a" d="M141,294.8a.2.2,0,0,1,0,.4.8.8,0,0,1-.7,0,.2.2,0,0,1,0-.4A.8.8,0,0,1,141,294.8Z" transform="translate(-95.5 -259.9)"/><path class="a" d="M142.8,293.7a.2.2,0,0,1,0,.4.8.8,0,0,1-.7,0,.2.2,0,0,1,0-.4A.8.8,0,0,1,142.8,293.7Z" transform="translate(-95.5 -259.9)"/><path class="a" d="M144.5,292.7a.2.2,0,0,1,0,.4.8.8,0,0,1-.7,0,.2.2,0,0,1,0-.4A.8.8,0,0,1,144.5,292.7Z" transform="translate(-95.5 -259.9)"/><path class="a" d="M146.3,291.7a.2.2,0,0,1,0,.4.8.8,0,0,1-.7,0,.2.2,0,0,1,0-.4A.8.8,0,0,1,146.3,291.7Z" transform="translate(-95.5 -259.9)"/><path class="a" d="M135.6,295.8a.2.2,0,0,1,0,.4.8.8,0,0,1-.7,0,.2.2,0,0,1,0-.4A.8.8,0,0,1,135.6,295.8Z" transform="translate(-95.5 -259.9)"/><path class="a" d="M137.4,294.8a.2.2,0,0,1,0,.4.8.8,0,0,1-.7,0,.2.2,0,0,1,0-.4A.8.8,0,0,1,137.4,294.8Z" transform="translate(-95.5 -259.9)"/><path class="a" d="M139.2,293.7a.2.2,0,0,1,0,.4.8.8,0,0,1-.7,0,.2.2,0,0,1,0-.4A.8.8,0,0,1,139.2,293.7Z" transform="translate(-95.5 -259.9)"/><path class="a" d="M141,292.7a.2.2,0,0,1,0,.4.8.8,0,0,1-.7,0,.2.2,0,0,1,0-.4A.8.8,0,0,1,141,292.7Z" transform="translate(-95.5 -259.9)"/><path class="a" d="M142.8,291.7a.2.2,0,0,1,0,.4.8.8,0,0,1-.7,0,.2.2,0,0,1,0-.4A.8.8,0,0,1,142.8,291.7Z" transform="translate(-95.5 -259.9)"/><path class="a" d="M144.5,290.6a.2.2,0,0,1,0,.4.8.8,0,0,1-.7,0,.2.2,0,0,1,0-.4A.8.8,0,0,1,144.5,290.6Z" transform="translate(-95.5 -259.9)"/><path class="a" d="M146.3,289.6a.2.2,0,0,1,0,.4.8.8,0,0,1-.7,0,.2.2,0,0,1,0-.4A.8.8,0,0,1,146.3,289.6Z" transform="translate(-95.5 -259.9)"/><path class="a" d="M132.1,295.8a.2.2,0,0,1,0,.4.8.8,0,0,1-.7,0,.2.2,0,0,1,0-.4A.8.8,0,0,1,132.1,295.8Z" transform="translate(-95.5 -259.9)"/><path class="a" d="M133.8,294.7a.2.2,0,0,1,0,.4.8.8,0,0,1-.7,0,.2.2,0,0,1,0-.4A.8.8,0,0,1,133.8,294.7Z" transform="translate(-95.5 -259.9)"/><path class="a" d="M135.6,293.7a.2.2,0,0,1,0,.4.8.8,0,0,1-.7,0,.2.2,0,0,1,0-.4A.8.8,0,0,1,135.6,293.7Z" transform="translate(-95.5 -259.9)"/><path class="a" d="M137.4,292.7a.2.2,0,0,1,0,.4.8.8,0,0,1-.7,0,.2.2,0,0,1,0-.4A.8.8,0,0,1,137.4,292.7Z" transform="translate(-95.5 -259.9)"/><path class="a" d="M139.2,291.7a.2.2,0,0,1,0,.4.8.8,0,0,1-.7,0,.2.2,0,0,1,0-.4A.8.8,0,0,1,139.2,291.7Z" transform="translate(-95.5 -259.9)"/><path class="a" d="M141,290.6a.2.2,0,0,1,0,.4.8.8,0,0,1-.7,0,.2.2,0,0,1,0-.4A.8.8,0,0,1,141,290.6Z" transform="translate(-95.5 -259.9)"/><path class="a" d="M142.7,289.6a.2.2,0,0,1,0,.4.8.8,0,0,1-.7,0,.2.2,0,0,1,0-.4A.8.8,0,0,1,142.7,289.6Z" transform="translate(-95.5 -259.9)"/><path class="a" d="M144.5,288.6a.2.2,0,0,1,0,.4.8.8,0,0,1-.7,0,.2.2,0,0,1,0-.4A.8.8,0,0,1,144.5,288.6Z" transform="translate(-95.5 -259.9)"/><path class="a" d="M146.3,287.5a.2.2,0,0,1,0,.4.8.8,0,0,1-.7,0,.2.2,0,0,1,0-.4A.8.8,0,0,1,146.3,287.5Z" transform="translate(-95.5 -259.9)"/><path class="a" d="M127.8,295.8a.8.8,0,0,1,.7,0,.2.2,0,0,1,0,.4.8.8,0,0,1-.7,0A.2.2,0,0,1,127.8,295.8Z" transform="translate(-95.5 -259.9)"/><path class="a" d="M130.3,294.7a.2.2,0,0,1,0,.4.8.8,0,0,1-.7,0,.2.2,0,0,1,0-.4A.8.8,0,0,1,130.3,294.7Z" transform="translate(-95.5 -259.9)"/><path class="a" d="M132.1,293.7a.2.2,0,0,1,0,.4.8.8,0,0,1-.7,0,.2.2,0,0,1,0-.4A.8.8,0,0,1,132.1,293.7Z" transform="translate(-95.5 -259.9)"/><path class="a" d="M133.8,292.7a.2.2,0,0,1,0,.4.8.8,0,0,1-.7,0,.2.2,0,0,1,0-.4A.8.8,0,0,1,133.8,292.7Z" transform="translate(-95.5 -259.9)"/><path class="a" d="M135.6,291.7a.2.2,0,0,1,0,.4.8.8,0,0,1-.7,0,.2.2,0,0,1,0-.4A.8.8,0,0,1,135.6,291.7Z" transform="translate(-95.5 -259.9)"/><path class="a" d="M137.4,290.6a.2.2,0,0,1,0,.4.8.8,0,0,1-.7,0,.2.2,0,0,1,0-.4A.8.8,0,0,1,137.4,290.6Z" transform="translate(-95.5 -259.9)"/><path class="a" d="M139.2,289.6a.2.2,0,0,1,0,.4.8.8,0,0,1-.7,0,.2.2,0,0,1,0-.4A.8.8,0,0,1,139.2,289.6Z" transform="translate(-95.5 -259.9)"/><path class="a" d="M146.3,285.5a.2.2,0,0,1,0,.4.8.8,0,0,1-.7,0,.2.2,0,0,1,0-.4A.8.8,0,0,1,146.3,285.5Z" transform="translate(-95.5 -259.9)"/><path class="a" d="M128.5,293.7a.2.2,0,0,1,0,.4.8.8,0,0,1-.7,0,.2.2,0,0,1,0-.4A.8.8,0,0,1,128.5,293.7Z" transform="translate(-95.5 -259.9)"/><path class="a" d="M130.3,292.7a.2.2,0,0,1,0,.4.8.8,0,0,1-.7,0,.2.2,0,0,1,0-.4A.8.8,0,0,1,130.3,292.7Z" transform="translate(-95.5 -259.9)"/><path class="a" d="M132.1,291.7a.2.2,0,0,1,0,.4.8.8,0,0,1-.7,0,.2.2,0,0,1,0-.4A.8.8,0,0,1,132.1,291.7Z" transform="translate(-95.5 -259.9)"/><path class="a" d="M128.5,291.7a.2.2,0,0,1,0,.4.8.8,0,0,1-.7,0,.2.2,0,0,1,0-.4A.8.8,0,0,1,128.5,291.7Z" transform="translate(-95.5 -259.9)"/><polygon class="b" points="1 28.8 1 16 23.6 29.1 23.6 41.8 1 28.8"/><polygon class="b" points="26.5 6.2 26.5 14.7 38.8 14.7 43.1 9.1 35.1 3.3 28.8 4.4 26.5 6.2"/><path class="a" d="M134.5,275H121.7v-9.1l2.6-2,6.4-1.1,8.4,6.2Zm-12.1-.7h11.7l3.9-5.2-7.6-5.5-6,1-2.1,1.7Z" transform="translate(-95.5 -259.9)"/><path class="b" d="M140.1,273.6l-4.9,1.3L111,277.1l6.7,8.3,4.8,5.6h5.2a51,51,0,0,0,5.7-.4,25.9,25.9,0,0,0,4.5-.9,19.3,19.3,0,0,0,3.9-1.7,6.5,6.5,0,0,0,3.1-3.3,3.9,3.9,0,0,0,.2-1.2h0v-.2s0-.1,0-.1V271Z" transform="translate(-95.5 -259.9)"/><path class="a" d="M126.7,291.4h-4.4l-4.9-5.7-7.2-8.8,24.9-2.2,4.8-1.3,5.4-2.9v12.8h0v.5a4.1,4.1,0,0,1-.2,1,6.9,6.9,0,0,1-3.3,3.5A19.8,19.8,0,0,1,138,290a26.3,26.3,0,0,1-4.6,1,51.7,51.7,0,0,1-5.8.4Zm-4.1-.8h5a51.1,51.1,0,0,0,5.7-.4,25.6,25.6,0,0,0,4.4-.9,19,19,0,0,0,3.8-1.7,6.2,6.2,0,0,0,3-3.1,3.5,3.5,0,0,0,.2-1V271.6l-4.5,2.3-4.9,1.3-23.6,2.1,6.3,7.7Z" transform="translate(-95.5 -259.9)"/><path class="b" d="M119.2,288.9,96.5,275.8l5.6-3.2h15.3l8.9-.2,3.5-.4a8,8,0,0,0,2.3-.9q1.2-.7,1.1-1.6t-1.5-1.7a11.3,11.3,0,0,0-3.8-1.2,50.8,50.8,0,0,0-5.9-.5l.8-5.8a60,60,0,0,1,7.1.6,30,30,0,0,1,5,1.2,27.7,27.7,0,0,1,4.8,2.2,12.7,12.7,0,0,1,4.3,3.7,4.3,4.3,0,0,1,.7,3.9,6.5,6.5,0,0,1-3.1,3.3,19.3,19.3,0,0,1-3.9,1.7,25.9,25.9,0,0,1-4.5.9,51.1,51.1,0,0,1-5.7.4l-13.1-.3h-.2l11.8,6.8Z" transform="translate(-95.5 -259.9)"/><path class="c" d="M144.2,270.5a12.6,12.6,0,0,0-4.3-3.7,27.7,27.7,0,0,0-4.8-2.2,30,30,0,0,0-5-1.2,60,60,0,0,0-7.1-.6l-.4,3v2.8a49.6,49.6,0,0,1,5.5.5,11.3,11.3,0,0,1,3.8,1.2q1.4.8,1.5,1.7t-1.1,1.6a8,8,0,0,1-2.3.9l-3.5.4-8.9.2H102l-5.6,3.2,22.7,13.1,7-4-11.8-6.8h.2l13.1.3a51,51,0,0,0,5.7-.4,25.9,25.9,0,0,0,4.5-.9,19.3,19.3,0,0,0,3.9-1.7,6.5,6.5,0,0,0,3.1-3.3A4.3,4.3,0,0,0,144.2,270.5Z" transform="translate(-95.5 -259.9)"/><path class="a" d="M144.5,267.8a13.1,13.1,0,0,0-4.5-3.9,28.2,28.2,0,0,0-4.9-2.3,30.5,30.5,0,0,0-5.1-1.3,60.6,60.6,0,0,0-7.2-.6h-.3l-.9,6.6h.4a50.5,50.5,0,0,1,5.9.5,11,11,0,0,1,3.7,1.2c.8.5,1.3,1,1.3,1.4s-.3.8-.9,1.2a7.7,7.7,0,0,1-2.2.8l-3.5.4-8.9.2H101.9l-5.8,3.4v13.2l23,13.3,7.3-4.2V284.7l-10.9-6.3,12.1.2h2.7v12.4l5.9-.6,5.6-2.3,2.5-2.4.6-2V272A4.6,4.6,0,0,0,144.5,267.8Zm-25.7,24.3V301L96.9,288.4V276.5l21.9,12.7Zm8.8-14.3-13.1-.3h-.1l-.9.5,11.8,6.8-.8.4-5.5,3.1-18.9-10.9-3.1-1.8,4.9-2.8h15.2l9-.2,3.6-.4a8.5,8.5,0,0,0,2.4-.9c.9-.5,1.4-1.2,1.3-1.9s-.6-1.4-1.7-2a11.7,11.7,0,0,0-4-1.3,49.8,49.8,0,0,0-5.5-.5l.7-5.1a58.2,58.2,0,0,1,6.8.5,29.7,29.7,0,0,1,4.9,1.2,27.4,27.4,0,0,1,4.8,2.2,12.3,12.3,0,0,1,4.2,3.6,3.9,3.9,0,0,1,.6,3.6,6.2,6.2,0,0,1-3,3.1,19,19,0,0,1-3.8,1.7,25.6,25.6,0,0,1-4.4.9A51.1,51.1,0,0,1,127.6,277.9Z" transform="translate(-95.5 -259.9)"/></svg>