<svg xmlns="http://www.w3.org/2000/svg" width="47.4" height="42.2" viewBox="0 0 47.4 42.2"><defs><style>.a{fill:#ff5252;}.b{fill:#fff;}.c{fill:#ffd9d9;}</style></defs><title>3</title><path class="a" d="M170.7,301.6a.2.2,0,0,1,0,.4.8.8,0,0,1-.7,0,.2.2,0,0,1,0-.4A.8.8,0,0,1,170.7,301.6Z" transform="translate(-148.5 -261.8)"/><path class="a" d="M172.5,300.6a.2.2,0,0,1,0,.4.8.8,0,0,1-.7,0,.2.2,0,0,1,0-.4A.8.8,0,0,1,172.5,300.6Z" transform="translate(-148.5 -261.8)"/><path class="a" d="M174.3,299.6a.2.2,0,0,1,0,.4.8.8,0,0,1-.7,0,.2.2,0,0,1,0-.4A.8.8,0,0,1,174.3,299.6Z" transform="translate(-148.5 -261.8)"/><path class="a" d="M176.1,298.5a.2.2,0,0,1,0,.4.8.8,0,0,1-.7,0,.2.2,0,0,1,0-.4A.8.8,0,0,1,176.1,298.5Z" transform="translate(-148.5 -261.8)"/><path class="a" d="M177.9,297.5a.2.2,0,0,1,0,.4.8.8,0,0,1-.7,0,.2.2,0,0,1,0-.4A.8.8,0,0,1,177.9,297.5Z" transform="translate(-148.5 -261.8)"/><path class="a" d="M179.7,296.5a.2.2,0,0,1,0,.4.8.8,0,0,1-.7,0,.2.2,0,0,1,0-.4A.8.8,0,0,1,179.7,296.5Z" transform="translate(-148.5 -261.8)"/><path class="a" d="M181.4,295.5a.2.2,0,0,1,0,.4.8.8,0,0,1-.7,0C180.6,295.7,181.2,295.4,181.4,295.5Z" transform="translate(-148.5 -261.8)"/><path class="a" d="M183.2,294.4a.2.2,0,0,1,0,.4.8.8,0,0,1-.7,0C182.3,294.7,183,294.3,183.2,294.4Z" transform="translate(-148.5 -261.8)"/><path class="a" d="M185,293.4a.2.2,0,0,1,0,.4.8.8,0,0,1-.7,0C184.1,293.7,184.8,293.3,185,293.4Z" transform="translate(-148.5 -261.8)"/><path class="a" d="M186.1,292.4a.8.8,0,0,1,.7,0,.2.2,0,0,1,0,.4.8.8,0,0,1-.7,0,.2.2,0,0,1,0-.4Z" transform="translate(-148.5 -261.8)"/><path class="a" d="M187.9,291.3a.8.8,0,0,1,.7,0,.2.2,0,0,1,0,.4.8.8,0,0,1-.7,0,.2.2,0,0,1,0-.4Z" transform="translate(-148.5 -261.8)"/><path class="a" d="M190.3,290.3a.2.2,0,0,1,0,.4.8.8,0,0,1-.7,0,.2.2,0,0,1,0-.4A.8.8,0,0,1,190.3,290.3Z" transform="translate(-148.5 -261.8)"/><path class="a" d="M192.1,289.3a.2.2,0,0,1,0,.4.8.8,0,0,1-.7,0,.2.2,0,0,1,0-.4A.8.8,0,0,1,192.1,289.3Z" transform="translate(-148.5 -261.8)"/><path class="a" d="M193.9,288.3a.2.2,0,0,1,0,.4.8.8,0,0,1-.7,0,.2.2,0,0,1,0-.4A.8.8,0,0,1,193.9,288.3Z" transform="translate(-148.5 -261.8)"/><path class="a" d="M195.7,287.2a.2.2,0,0,1,0,.4.8.8,0,0,1-.7,0,.2.2,0,0,1,0-.4A.8.8,0,0,1,195.7,287.2Z" transform="translate(-148.5 -261.8)"/><path class="a" d="M168.3,300.6a.8.8,0,0,1,.7,0,.2.2,0,0,1,0,.4.8.8,0,0,1-.7,0A.2.2,0,0,1,168.3,300.6Z" transform="translate(-148.5 -261.8)"/><path class="a" d="M170.7,299.6a.2.2,0,0,1,0,.4.8.8,0,0,1-.7,0,.2.2,0,0,1,0-.4A.8.8,0,0,1,170.7,299.6Z" transform="translate(-148.5 -261.8)"/><path class="a" d="M172.5,298.5a.2.2,0,0,1,0,.4.8.8,0,0,1-.7,0,.2.2,0,0,1,0-.4A.8.8,0,0,1,172.5,298.5Z" transform="translate(-148.5 -261.8)"/><path class="a" d="M174.3,297.5a.2.2,0,0,1,0,.4.8.8,0,0,1-.7,0,.2.2,0,0,1,0-.4A.8.8,0,0,1,174.3,297.5Z" transform="translate(-148.5 -261.8)"/><path class="a" d="M176.1,296.5a.2.2,0,0,1,0,.4.8.8,0,0,1-.7,0,.2.2,0,0,1,0-.4A.8.8,0,0,1,176.1,296.5Z" transform="translate(-148.5 -261.8)"/><path class="a" d="M181.4,293.4a.2.2,0,0,1,0,.4.8.8,0,0,1-.7,0C180.6,293.7,181.2,293.3,181.4,293.4Z" transform="translate(-148.5 -261.8)"/><path class="a" d="M183.2,292.4a.2.2,0,0,1,0,.4.8.8,0,0,1-.7,0C182.3,292.7,183,292.3,183.2,292.4Z" transform="translate(-148.5 -261.8)"/><path class="a" d="M184.3,291.3a.8.8,0,0,1,.7,0,.2.2,0,0,1,0,.4.8.8,0,0,1-.7,0A.2.2,0,0,1,184.3,291.3Z" transform="translate(-148.5 -261.8)"/><path class="a" d="M186.1,290.3a.8.8,0,0,1,.7,0,.2.2,0,0,1,0,.4.8.8,0,0,1-.7,0,.2.2,0,0,1,0-.4Z" transform="translate(-148.5 -261.8)"/><path class="a" d="M188.6,289.7a.8.8,0,0,1-.7,0,.2.2,0,0,1,0-.4C188.1,289.2,188.7,289.6,188.6,289.7Z" transform="translate(-148.5 -261.8)"/><path class="a" d="M189.7,288.7a.2.2,0,0,1,0-.4.8.8,0,0,1,.7,0C190.5,288.4,189.8,288.8,189.7,288.7Z" transform="translate(-148.5 -261.8)"/><path class="a" d="M192.1,287.2a.2.2,0,0,1,0,.4.8.8,0,0,1-.7,0,.2.2,0,0,1,0-.4A.8.8,0,0,1,192.1,287.2Z" transform="translate(-148.5 -261.8)"/><path class="a" d="M193.9,286.2a.2.2,0,0,1,0,.4.8.8,0,0,1-.7,0,.2.2,0,0,1,0-.4A.8.8,0,0,1,193.9,286.2Z" transform="translate(-148.5 -261.8)"/><path class="a" d="M166.5,299.6a.8.8,0,0,1,.7,0,.2.2,0,0,1,0,.4.8.8,0,0,1-.7,0A.2.2,0,0,1,166.5,299.6Z" transform="translate(-148.5 -261.8)"/><path class="a" d="M169,298.5a.2.2,0,0,1,0,.4.8.8,0,0,1-.7,0,.2.2,0,0,1,0-.4A.8.8,0,0,1,169,298.5Z" transform="translate(-148.5 -261.8)"/><path class="a" d="M170.7,297.5a.2.2,0,0,1,0,.4.8.8,0,0,1-.7,0,.2.2,0,0,1,0-.4A.8.8,0,0,1,170.7,297.5Z" transform="translate(-148.5 -261.8)"/><path class="a" d="M172.5,296.5a.2.2,0,0,1,0,.4.8.8,0,0,1-.7,0,.2.2,0,0,1,0-.4A.8.8,0,0,1,172.5,296.5Z" transform="translate(-148.5 -261.8)"/><path class="a" d="M192.1,285.2a.2.2,0,0,1,0,.4.8.8,0,0,1-.7,0C191.3,285.5,191.9,285.1,192.1,285.2Z" transform="translate(-148.5 -261.8)"/><path class="a" d="M164.7,298.5a.8.8,0,0,1,.7,0,.2.2,0,0,1,0,.4.8.8,0,0,1-.7,0A.2.2,0,0,1,164.7,298.5Z" transform="translate(-148.5 -261.8)"/><path class="a" d="M167.2,297.5a.2.2,0,0,1,0,.4.8.8,0,0,1-.7,0,.2.2,0,0,1,0-.4A.8.8,0,0,1,167.2,297.5Z" transform="translate(-148.5 -261.8)"/><path class="a" d="M169,296.5a.2.2,0,0,1,0,.4.8.8,0,0,1-.7,0,.2.2,0,0,1,0-.4A.8.8,0,0,1,169,296.5Z" transform="translate(-148.5 -261.8)"/><path class="a" d="M170.7,295.5a.2.2,0,0,1,0,.4.8.8,0,0,1-.7,0,.2.2,0,0,1,0-.4A.8.8,0,0,1,170.7,295.5Z" transform="translate(-148.5 -261.8)"/><path class="a" d="M172.5,294.8a.8.8,0,0,1-.7,0,.2.2,0,0,1,0-.4.8.8,0,0,1,.7,0A.2.2,0,0,1,172.5,294.8Z" transform="translate(-148.5 -261.8)"/><path class="a" d="M162.9,297.5a.8.8,0,0,1,.7,0,.2.2,0,0,1,0,.4.8.8,0,0,1-.7,0A.2.2,0,0,1,162.9,297.5Z" transform="translate(-148.5 -261.8)"/><path class="a" d="M165.4,296.5a.2.2,0,0,1,0,.4.8.8,0,0,1-.7,0,.2.2,0,0,1,0-.4A.8.8,0,0,1,165.4,296.5Z" transform="translate(-148.5 -261.8)"/><path class="a" d="M167.2,295.5a.2.2,0,0,1,0,.4.8.8,0,0,1-.7,0,.2.2,0,0,1,0-.4A.8.8,0,0,1,167.2,295.5Z" transform="translate(-148.5 -261.8)"/><path class="a" d="M169,294.4a.2.2,0,0,1,0,.4.8.8,0,0,1-.7,0,.2.2,0,0,1,0-.4A.8.8,0,0,1,169,294.4Z" transform="translate(-148.5 -261.8)"/><path class="a" d="M170.7,293.4a.2.2,0,0,1,0,.4.8.8,0,0,1-.7,0,.2.2,0,0,1,0-.4A.8.8,0,0,1,170.7,293.4Z" transform="translate(-148.5 -261.8)"/><path class="a" d="M161.1,296.5a.8.8,0,0,1,.7,0,.2.2,0,0,1,0,.4.8.8,0,0,1-.7,0A.2.2,0,0,1,161.1,296.5Z" transform="translate(-148.5 -261.8)"/><path class="a" d="M163.6,295.5a.2.2,0,0,1,0,.4.8.8,0,0,1-.7,0,.2.2,0,0,1,0-.4A.8.8,0,0,1,163.6,295.5Z" transform="translate(-148.5 -261.8)"/><path class="a" d="M165.4,294.4a.2.2,0,0,1,0,.4.8.8,0,0,1-.7,0,.2.2,0,0,1,0-.4A.8.8,0,0,1,165.4,294.4Z" transform="translate(-148.5 -261.8)"/><path class="a" d="M167.2,293.4a.2.2,0,0,1,0,.4.8.8,0,0,1-.7,0,.2.2,0,0,1,0-.4A.8.8,0,0,1,167.2,293.4Z" transform="translate(-148.5 -261.8)"/><path class="a" d="M169,292.4a.2.2,0,0,1,0,.4.8.8,0,0,1-.7,0,.2.2,0,0,1,0-.4A.8.8,0,0,1,169,292.4Z" transform="translate(-148.5 -261.8)"/><path class="a" d="M161.8,294.4a.2.2,0,0,1,0,.4.8.8,0,0,1-.7,0,.2.2,0,0,1,0-.4A.8.8,0,0,1,161.8,294.4Z" transform="translate(-148.5 -261.8)"/><path class="a" d="M163.6,293.4a.2.2,0,0,1,0,.4.8.8,0,0,1-.7,0,.2.2,0,0,1,0-.4A.8.8,0,0,1,163.6,293.4Z" transform="translate(-148.5 -261.8)"/><path class="a" d="M165.4,292.4a.2.2,0,0,1,0,.4.8.8,0,0,1-.7,0,.2.2,0,0,1,0-.4A.8.8,0,0,1,165.4,292.4Z" transform="translate(-148.5 -261.8)"/><path class="a" d="M167.2,291.3a.2.2,0,0,1,0,.4.8.8,0,0,1-.7,0,.2.2,0,0,1,0-.4A.8.8,0,0,1,167.2,291.3Z" transform="translate(-148.5 -261.8)"/><path class="a" d="M169,290.3a.2.2,0,0,1,0,.4.8.8,0,0,1-.7,0,.2.2,0,0,1,0-.4A.8.8,0,0,1,169,290.3Z" transform="translate(-148.5 -261.8)"/><path class="a" d="M161.8,292.4a.2.2,0,0,1,0,.4.8.8,0,0,1-.7,0,.2.2,0,0,1,0-.4A.8.8,0,0,1,161.8,292.4Z" transform="translate(-148.5 -261.8)"/><path class="a" d="M163.6,291.3a.2.2,0,0,1,0,.4.8.8,0,0,1-.7,0,.2.2,0,0,1,0-.4A.8.8,0,0,1,163.6,291.3Z" transform="translate(-148.5 -261.8)"/><path class="a" d="M165.4,290.3a.2.2,0,0,1,0,.4.8.8,0,0,1-.7,0,.2.2,0,0,1,0-.4A.8.8,0,0,1,165.4,290.3Z" transform="translate(-148.5 -261.8)"/><path class="a" d="M167.2,289.3a.2.2,0,0,1,0,.4.8.8,0,0,1-.7,0,.2.2,0,0,1,0-.4A.8.8,0,0,1,167.2,289.3Z" transform="translate(-148.5 -261.8)"/><path class="a" d="M169,288.3a.2.2,0,0,1,0,.4.8.8,0,0,1-.7,0,.2.2,0,0,1,0-.4A.8.8,0,0,1,169,288.3Z" transform="translate(-148.5 -261.8)"/><path class="a" d="M160,291.3a.2.2,0,0,1,0,.4.8.8,0,0,1-.7,0,.2.2,0,0,1,0-.4A.8.8,0,0,1,160,291.3Z" transform="translate(-148.5 -261.8)"/><path class="a" d="M161.8,290.3a.2.2,0,0,1,0,.4.8.8,0,0,1-.7,0,.2.2,0,0,1,0-.4A.8.8,0,0,1,161.8,290.3Z" transform="translate(-148.5 -261.8)"/><path class="a" d="M163.6,289.3a.2.2,0,0,1,0,.4.8.8,0,0,1-.7,0,.2.2,0,0,1,0-.4A.8.8,0,0,1,163.6,289.3Z" transform="translate(-148.5 -261.8)"/><path class="a" d="M165.4,288.3a.2.2,0,0,1,0,.4.8.8,0,0,1-.7,0,.2.2,0,0,1,0-.4A.8.8,0,0,1,165.4,288.3Z" transform="translate(-148.5 -261.8)"/><path class="a" d="M167.2,287.2a.2.2,0,0,1,0,.4.8.8,0,0,1-.7,0,.2.2,0,0,1,0-.4A.8.8,0,0,1,167.2,287.2Z" transform="translate(-148.5 -261.8)"/><path class="a" d="M158.3,290.3a.2.2,0,0,1,0,.4.8.8,0,0,1-.7,0,.2.2,0,0,1,0-.4A.8.8,0,0,1,158.3,290.3Z" transform="translate(-148.5 -261.8)"/><path class="a" d="M160,289.3a.2.2,0,0,1,0,.4.8.8,0,0,1-.7,0,.2.2,0,0,1,0-.4A.8.8,0,0,1,160,289.3Z" transform="translate(-148.5 -261.8)"/><path class="a" d="M161.8,288.3a.2.2,0,0,1,0,.4.8.8,0,0,1-.7,0,.2.2,0,0,1,0-.4A.8.8,0,0,1,161.8,288.3Z" transform="translate(-148.5 -261.8)"/><path class="a" d="M163.6,287.2a.2.2,0,0,1,0,.4.8.8,0,0,1-.7,0,.2.2,0,0,1,0-.4A.8.8,0,0,1,163.6,287.2Z" transform="translate(-148.5 -261.8)"/><path class="a" d="M165.4,286.2a.2.2,0,0,1,0,.4.8.8,0,0,1-.7,0,.2.2,0,0,1,0-.4A.8.8,0,0,1,165.4,286.2Z" transform="translate(-148.5 -261.8)"/><path class="a" d="M154.7,290.3a.2.2,0,0,1,0,.4.8.8,0,0,1-.7,0,.2.2,0,0,1,0-.4A.8.8,0,0,1,154.7,290.3Z" transform="translate(-148.5 -261.8)"/><path class="a" d="M156.5,289.3a.2.2,0,0,1,0,.4.8.8,0,0,1-.7,0,.2.2,0,0,1,0-.4A.8.8,0,0,1,156.5,289.3Z" transform="translate(-148.5 -261.8)"/><path class="a" d="M158.3,288.3a.2.2,0,0,1,0,.4.8.8,0,0,1-.7,0,.2.2,0,0,1,0-.4A.8.8,0,0,1,158.3,288.3Z" transform="translate(-148.5 -261.8)"/><path class="a" d="M160,287.2a.2.2,0,0,1,0,.4.8.8,0,0,1-.7,0,.2.2,0,0,1,0-.4A.8.8,0,0,1,160,287.2Z" transform="translate(-148.5 -261.8)"/><path class="a" d="M161.8,286.2a.2.2,0,0,1,0,.4.8.8,0,0,1-.7,0,.2.2,0,0,1,0-.4A.8.8,0,0,1,161.8,286.2Z" transform="translate(-148.5 -261.8)"/><path class="a" d="M163.6,285.2a.2.2,0,0,1,0,.4.8.8,0,0,1-.7,0,.2.2,0,0,1,0-.4A.8.8,0,0,1,163.6,285.2Z" transform="translate(-148.5 -261.8)"/><path class="a" d="M152.9,289.3a.2.2,0,0,1,0,.4.8.8,0,0,1-.7,0,.2.2,0,0,1,0-.4A.8.8,0,0,1,152.9,289.3Z" transform="translate(-148.5 -261.8)"/><path class="a" d="M154.7,288.3a.2.2,0,0,1,0,.4.8.8,0,0,1-.7,0,.2.2,0,0,1,0-.4A.8.8,0,0,1,154.7,288.3Z" transform="translate(-148.5 -261.8)"/><path class="a" d="M156.5,287.2a.2.2,0,0,1,0,.4.8.8,0,0,1-.7,0,.2.2,0,0,1,0-.4A.8.8,0,0,1,156.5,287.2Z" transform="translate(-148.5 -261.8)"/><path class="a" d="M158.3,286.2a.2.2,0,0,1,0,.4.8.8,0,0,1-.7,0,.2.2,0,0,1,0-.4A.8.8,0,0,1,158.3,286.2Z" transform="translate(-148.5 -261.8)"/><path class="a" d="M160,285.2a.2.2,0,0,1,0,.4.8.8,0,0,1-.7,0,.2.2,0,0,1,0-.4A.8.8,0,0,1,160,285.2Z" transform="translate(-148.5 -261.8)"/><path class="a" d="M161.8,284.1a.2.2,0,0,1,0,.4.8.8,0,0,1-.7,0,.2.2,0,0,1,0-.4A.8.8,0,0,1,161.8,284.1Z" transform="translate(-148.5 -261.8)"/><path class="a" d="M163.6,283.5a.8.8,0,0,1-.7,0,.2.2,0,0,1,0-.4.8.8,0,0,1,.7,0A.2.2,0,0,1,163.6,283.5Z" transform="translate(-148.5 -261.8)"/><path class="a" d="M151.1,288.3a.2.2,0,0,1,0,.4.8.8,0,0,1-.7,0,.2.2,0,0,1,0-.4A.8.8,0,0,1,151.1,288.3Z" transform="translate(-148.5 -261.8)"/><path class="a" d="M152.9,287.2a.2.2,0,0,1,0,.4.8.8,0,0,1-.7,0,.2.2,0,0,1,0-.4A.8.8,0,0,1,152.9,287.2Z" transform="translate(-148.5 -261.8)"/><path class="a" d="M154.7,286.2a.2.2,0,0,1,0,.4.8.8,0,0,1-.7,0,.2.2,0,0,1,0-.4A.8.8,0,0,1,154.7,286.2Z" transform="translate(-148.5 -261.8)"/><path class="a" d="M156.5,285.2a.2.2,0,0,1,0,.4.8.8,0,0,1-.7,0,.2.2,0,0,1,0-.4A.8.8,0,0,1,156.5,285.2Z" transform="translate(-148.5 -261.8)"/><path class="a" d="M158.3,284.1a.2.2,0,0,1,0,.4.8.8,0,0,1-.7,0,.2.2,0,0,1,0-.4A.8.8,0,0,1,158.3,284.1Z" transform="translate(-148.5 -261.8)"/><path class="a" d="M160,283.1a.2.2,0,0,1,0,.4.8.8,0,0,1-.7,0,.2.2,0,0,1,0-.4A.8.8,0,0,1,160,283.1Z" transform="translate(-148.5 -261.8)"/><path class="a" d="M161.8,282.1a.2.2,0,0,1,0,.4.8.8,0,0,1-.7,0,.2.2,0,0,1,0-.4A.8.8,0,0,1,161.8,282.1Z" transform="translate(-148.5 -261.8)"/><path class="a" d="M163.6,281.1a.2.2,0,0,1,0,.4.8.8,0,0,1-.7,0,.2.2,0,0,1,0-.4A.8.8,0,0,1,163.6,281.1Z" transform="translate(-148.5 -261.8)"/><path class="a" d="M149.3,287.2a.2.2,0,0,1,0,.4.8.8,0,0,1-.7,0,.2.2,0,0,1,0-.4A.8.8,0,0,1,149.3,287.2Z" transform="translate(-148.5 -261.8)"/><path class="a" d="M151.1,286.2a.2.2,0,0,1,0,.4.8.8,0,0,1-.7,0,.2.2,0,0,1,0-.4A.8.8,0,0,1,151.1,286.2Z" transform="translate(-148.5 -261.8)"/><path class="a" d="M152.9,285.2a.2.2,0,0,1,0,.4.8.8,0,0,1-.7,0,.2.2,0,0,1,0-.4A.8.8,0,0,1,152.9,285.2Z" transform="translate(-148.5 -261.8)"/><path class="a" d="M154.7,284.1a.2.2,0,0,1,0,.4.8.8,0,0,1-.7,0,.2.2,0,0,1,0-.4A.8.8,0,0,1,154.7,284.1Z" transform="translate(-148.5 -261.8)"/><path class="a" d="M156.5,283.1a.2.2,0,0,1,0,.4.8.8,0,0,1-.7,0,.2.2,0,0,1,0-.4A.8.8,0,0,1,156.5,283.1Z" transform="translate(-148.5 -261.8)"/><path class="a" d="M158.2,282.1a.2.2,0,0,1,0,.4.8.8,0,0,1-.7,0,.2.2,0,0,1,0-.4A.8.8,0,0,1,158.2,282.1Z" transform="translate(-148.5 -261.8)"/><path class="a" d="M160,281a.2.2,0,0,1,0,.4.8.8,0,0,1-.7,0,.2.2,0,0,1,0-.4A.8.8,0,0,1,160,281Z" transform="translate(-148.5 -261.8)"/><path class="a" d="M161.8,280a.2.2,0,0,1,0,.4.8.8,0,0,1-.7,0,.2.2,0,0,1,0-.4A.8.8,0,0,1,161.8,280Z" transform="translate(-148.5 -261.8)"/><path class="a" d="M163.6,279.4a.8.8,0,0,1-.7,0,.2.2,0,0,1,0-.4.8.8,0,0,1,.7,0A.2.2,0,0,1,163.6,279.4Z" transform="translate(-148.5 -261.8)"/><path class="a" d="M149.3,285.2a.2.2,0,0,1,0,.4.8.8,0,0,1-.7,0,.2.2,0,0,1,0-.4A.8.8,0,0,1,149.3,285.2Z" transform="translate(-148.5 -261.8)"/><path class="a" d="M151.1,284.1a.2.2,0,0,1,0,.4.8.8,0,0,1-.7,0,.2.2,0,0,1,0-.4A.8.8,0,0,1,151.1,284.1Z" transform="translate(-148.5 -261.8)"/><path class="a" d="M152.9,283.1a.2.2,0,0,1,0,.4.8.8,0,0,1-.7,0,.2.2,0,0,1,0-.4A.8.8,0,0,1,152.9,283.1Z" transform="translate(-148.5 -261.8)"/><path class="a" d="M154.7,282.1a.2.2,0,0,1,0,.4.8.8,0,0,1-.7,0,.2.2,0,0,1,0-.4A.8.8,0,0,1,154.7,282.1Z" transform="translate(-148.5 -261.8)"/><path class="a" d="M158.2,280a.2.2,0,0,1,0,.4.8.8,0,0,1-.7,0,.2.2,0,0,1,0-.4A.8.8,0,0,1,158.2,280Z" transform="translate(-148.5 -261.8)"/><path class="a" d="M160,279a.2.2,0,0,1,0,.4.8.8,0,0,1-.7,0,.2.2,0,0,1,0-.4A.8.8,0,0,1,160,279Z" transform="translate(-148.5 -261.8)"/><path class="a" d="M161.8,278a.2.2,0,0,1,0,.4.8.8,0,0,1-.7,0,.2.2,0,0,1,0-.4A.8.8,0,0,1,161.8,278Z" transform="translate(-148.5 -261.8)"/><path class="a" d="M149.3,283.1a.2.2,0,0,1,0,.4.8.8,0,0,1-.7,0,.2.2,0,0,1,0-.4A.8.8,0,0,1,149.3,283.1Z" transform="translate(-148.5 -261.8)"/><path class="a" d="M151.1,282.1a.2.2,0,0,1,0,.4.8.8,0,0,1-.7,0,.2.2,0,0,1,0-.4A.8.8,0,0,1,151.1,282.1Z" transform="translate(-148.5 -261.8)"/><path class="a" d="M183.3,302.5a.2.2,0,0,1,0,.4.8.8,0,0,1-.7,0,.2.2,0,0,1,0-.4A.8.8,0,0,1,183.3,302.5Z" transform="translate(-148.5 -261.8)"/><path class="a" d="M185.1,301.5a.2.2,0,0,1,0,.4.8.8,0,0,1-.7,0,.2.2,0,0,1,0-.4A.8.8,0,0,1,185.1,301.5Z" transform="translate(-148.5 -261.8)"/><path class="a" d="M186.8,300.4a.2.2,0,0,1,0,.4.8.8,0,0,1-.7,0,.2.2,0,0,1,0-.4A.8.8,0,0,1,186.8,300.4Z" transform="translate(-148.5 -261.8)"/><path class="a" d="M188.6,299.4a.2.2,0,0,1,0,.4.8.8,0,0,1-.7,0,.2.2,0,0,1,0-.4A.8.8,0,0,1,188.6,299.4Z" transform="translate(-148.5 -261.8)"/><path class="a" d="M190.4,298.4a.2.2,0,0,1,0,.4.8.8,0,0,1-.7,0,.2.2,0,0,1,0-.4A.8.8,0,0,1,190.4,298.4Z" transform="translate(-148.5 -261.8)"/><path class="a" d="M192.2,297.4a.2.2,0,0,1,0,.4.8.8,0,0,1-.7,0,.2.2,0,0,1,0-.4A.8.8,0,0,1,192.2,297.4Z" transform="translate(-148.5 -261.8)"/><path class="a" d="M177.9,303.5a.2.2,0,0,1,0,.4.8.8,0,0,1-.7,0,.2.2,0,0,1,0-.4A.8.8,0,0,1,177.9,303.5Z" transform="translate(-148.5 -261.8)"/><path class="a" d="M179.7,302.5a.2.2,0,0,1,0,.4.8.8,0,0,1-.7,0,.2.2,0,0,1,0-.4A.8.8,0,0,1,179.7,302.5Z" transform="translate(-148.5 -261.8)"/><path class="a" d="M181.5,301.5a.2.2,0,0,1,0,.4.8.8,0,0,1-.7,0,.2.2,0,0,1,0-.4A.8.8,0,0,1,181.5,301.5Z" transform="translate(-148.5 -261.8)"/><path class="a" d="M183.3,300.4a.2.2,0,0,1,0,.4.8.8,0,0,1-.7,0,.2.2,0,0,1,0-.4A.8.8,0,0,1,183.3,300.4Z" transform="translate(-148.5 -261.8)"/><path class="a" d="M185.1,299.4a.2.2,0,0,1,0,.4.8.8,0,0,1-.7,0,.2.2,0,0,1,0-.4A.8.8,0,0,1,185.1,299.4Z" transform="translate(-148.5 -261.8)"/><path class="a" d="M186.8,298.4a.2.2,0,0,1,0,.4.8.8,0,0,1-.7,0,.2.2,0,0,1,0-.4A.8.8,0,0,1,186.8,298.4Z" transform="translate(-148.5 -261.8)"/><path class="a" d="M188.6,297.4a.2.2,0,0,1,0,.4.8.8,0,0,1-.7,0,.2.2,0,0,1,0-.4A.8.8,0,0,1,188.6,297.4Z" transform="translate(-148.5 -261.8)"/><path class="a" d="M190.4,296.3a.2.2,0,0,1,0,.4.8.8,0,0,1-.7,0,.2.2,0,0,1,0-.4A.8.8,0,0,1,190.4,296.3Z" transform="translate(-148.5 -261.8)"/><path class="a" d="M192.2,295.3a.2.2,0,0,1,0,.4.8.8,0,0,1-.7,0,.2.2,0,0,1,0-.4A.8.8,0,0,1,192.2,295.3Z" transform="translate(-148.5 -261.8)"/><path class="a" d="M194,294.3a.2.2,0,0,1,0,.4.8.8,0,0,1-.7,0,.2.2,0,0,1,0-.4A.8.8,0,0,1,194,294.3Z" transform="translate(-148.5 -261.8)"/><path class="a" d="M195.8,293.2a.2.2,0,0,1,0,.4.8.8,0,0,1-.7,0,.2.2,0,0,1,0-.4A.8.8,0,0,1,195.8,293.2Z" transform="translate(-148.5 -261.8)"/><path class="a" d="M173.7,303.5a.8.8,0,0,1,.7,0,.2.2,0,0,1,0,.4.8.8,0,0,1-.7,0A.2.2,0,0,1,173.7,303.5Z" transform="translate(-148.5 -261.8)"/><path class="a" d="M176.2,302.5a.2.2,0,0,1,0,.4.8.8,0,0,1-.7,0,.2.2,0,0,1,0-.4A.8.8,0,0,1,176.2,302.5Z" transform="translate(-148.5 -261.8)"/><path class="a" d="M177.9,301.5a.2.2,0,0,1,0,.4.8.8,0,0,1-.7,0,.2.2,0,0,1,0-.4A.8.8,0,0,1,177.9,301.5Z" transform="translate(-148.5 -261.8)"/><path class="a" d="M179.7,300.4a.2.2,0,0,1,0,.4.8.8,0,0,1-.7,0,.2.2,0,0,1,0-.4A.8.8,0,0,1,179.7,300.4Z" transform="translate(-148.5 -261.8)"/><path class="a" d="M181.5,299.4a.2.2,0,0,1,0,.4.8.8,0,0,1-.7,0,.2.2,0,0,1,0-.4A.8.8,0,0,1,181.5,299.4Z" transform="translate(-148.5 -261.8)"/><path class="a" d="M183.3,298.4a.2.2,0,0,1,0,.4.8.8,0,0,1-.7,0,.2.2,0,0,1,0-.4A.8.8,0,0,1,183.3,298.4Z" transform="translate(-148.5 -261.8)"/><path class="a" d="M185.1,297.4a.2.2,0,0,1,0,.4.8.8,0,0,1-.7,0,.2.2,0,0,1,0-.4A.8.8,0,0,1,185.1,297.4Z" transform="translate(-148.5 -261.8)"/><path class="a" d="M186.8,296.3a.2.2,0,0,1,0,.4.8.8,0,0,1-.7,0,.2.2,0,0,1,0-.4A.8.8,0,0,1,186.8,296.3Z" transform="translate(-148.5 -261.8)"/><path class="a" d="M188.6,295.3a.2.2,0,0,1,0,.4.8.8,0,0,1-.7,0,.2.2,0,0,1,0-.4A.8.8,0,0,1,188.6,295.3Z" transform="translate(-148.5 -261.8)"/><path class="a" d="M190.4,294.3a.2.2,0,0,1,0,.4.8.8,0,0,1-.7,0,.2.2,0,0,1,0-.4A.8.8,0,0,1,190.4,294.3Z" transform="translate(-148.5 -261.8)"/><path class="a" d="M192.2,293.2a.2.2,0,0,1,0,.4.8.8,0,0,1-.7,0,.2.2,0,0,1,0-.4A.8.8,0,0,1,192.2,293.2Z" transform="translate(-148.5 -261.8)"/><path class="a" d="M194,292.2a.2.2,0,0,1,0,.4.8.8,0,0,1-.7,0,.2.2,0,0,1,0-.4A.8.8,0,0,1,194,292.2Z" transform="translate(-148.5 -261.8)"/><path class="a" d="M195.8,291.2a.2.2,0,0,1,0,.4.8.8,0,0,1-.7,0,.2.2,0,0,1,0-.4A.8.8,0,0,1,195.8,291.2Z" transform="translate(-148.5 -261.8)"/><path class="a" d="M171.9,302.5a.8.8,0,0,1,.7,0,.2.2,0,0,1,0,.4.8.8,0,0,1-.7,0A.2.2,0,0,1,171.9,302.5Z" transform="translate(-148.5 -261.8)"/><path class="a" d="M174.4,301.5a.2.2,0,0,1,0,.4.8.8,0,0,1-.7,0,.2.2,0,0,1,0-.4A.8.8,0,0,1,174.4,301.5Z" transform="translate(-148.5 -261.8)"/><path class="a" d="M176.2,300.4a.2.2,0,0,1,0,.4.8.8,0,0,1-.7,0,.2.2,0,0,1,0-.4A.8.8,0,0,1,176.2,300.4Z" transform="translate(-148.5 -261.8)"/><path class="a" d="M177.9,299.4a.2.2,0,0,1,0,.4.8.8,0,0,1-.7,0,.2.2,0,0,1,0-.4A.8.8,0,0,1,177.9,299.4Z" transform="translate(-148.5 -261.8)"/><path class="a" d="M179.7,298.4a.2.2,0,0,1,0,.4.8.8,0,0,1-.7,0,.2.2,0,0,1,0-.4A.8.8,0,0,1,179.7,298.4Z" transform="translate(-148.5 -261.8)"/><path class="a" d="M181.5,297.4a.2.2,0,0,1,0,.4.8.8,0,0,1-.7,0,.2.2,0,0,1,0-.4A.8.8,0,0,1,181.5,297.4Z" transform="translate(-148.5 -261.8)"/><path class="a" d="M183.3,296.3a.2.2,0,0,1,0,.4.8.8,0,0,1-.7,0,.2.2,0,0,1,0-.4A.8.8,0,0,1,183.3,296.3Z" transform="translate(-148.5 -261.8)"/><path class="a" d="M185.1,295.3a.2.2,0,0,1,0,.4.8.8,0,0,1-.7,0,.2.2,0,0,1,0-.4A.8.8,0,0,1,185.1,295.3Z" transform="translate(-148.5 -261.8)"/><path class="a" d="M186.8,294.3a.2.2,0,0,1,0,.4.8.8,0,0,1-.7,0,.2.2,0,0,1,0-.4A.8.8,0,0,1,186.8,294.3Z" transform="translate(-148.5 -261.8)"/><path class="a" d="M188.6,293.2a.2.2,0,0,1,0,.4.8.8,0,0,1-.7,0,.2.2,0,0,1,0-.4A.8.8,0,0,1,188.6,293.2Z" transform="translate(-148.5 -261.8)"/><path class="a" d="M190.4,292.2a.2.2,0,0,1,0,.4.8.8,0,0,1-.7,0,.2.2,0,0,1,0-.4A.8.8,0,0,1,190.4,292.2Z" transform="translate(-148.5 -261.8)"/><path class="a" d="M192.2,291.2a.2.2,0,0,1,0,.4.8.8,0,0,1-.7,0,.2.2,0,0,1,0-.4A.8.8,0,0,1,192.2,291.2Z" transform="translate(-148.5 -261.8)"/><path class="a" d="M194,290.2a.2.2,0,0,1,0,.4.8.8,0,0,1-.7,0,.2.2,0,0,1,0-.4A.8.8,0,0,1,194,290.2Z" transform="translate(-148.5 -261.8)"/><path class="a" d="M195.8,289.1a.2.2,0,0,1,0,.4.8.8,0,0,1-.7,0,.2.2,0,0,1,0-.4A.8.8,0,0,1,195.8,289.1Z" transform="translate(-148.5 -261.8)"/><polygon class="b" points="0.7 11.4 0.7 21.1 9.4 22.3 9.4 12.6 0.7 11.4"/><path class="a" d="M158.2,284.5h-.6v-10l1.3-6.9,10.2-1.3,1.2,5.8-1.7,8.4-.5-.7-.7-.6a3.7,3.7,0,0,0-2.4-.4,7.8,7.8,0,0,0-2.9,1h0a8.6,8.6,0,0,0-3.8,4.3Zm1.3-16.3-1.2,6.3v8a9.6,9.6,0,0,1,3.4-3.3h0a8.6,8.6,0,0,1,3.1-1.1,4.5,4.5,0,0,1,2.9.5l.4.2,1.4-6.8-1.1-4.9Z" transform="translate(-148.5 -261.8)"/><path class="a" d="M162,279.6l.8-.4c1-.1-.8-2.5-.1-2s-.1-1.6.1-1.4l3.8-2L169,271l-1.2-1.5-2.4-1-2.7,1-2.6,1.8-2.1,3.1v9.7A9,9,0,0,1,162,279.6Z" transform="translate(-148.5 -261.8)"/><path class="b" d="M173.5,263.7q2.8,1.6,3.1,3.7t-2,4.5h.1q8.4-3.8,14.5-.2,4.2,2.4,3.3,5.7t-6.8,6.7a39.8,39.8,0,0,1-4.8,2.4,43.8,43.8,0,0,1-5.7,1.8l-6.7-3.9A35.9,35.9,0,0,0,174,283a25.9,25.9,0,0,0,4.2-1.9q2.7-1.5,3.1-2.7t-1.1-2a5.1,5.1,0,0,0-2.5-.7,8.9,8.9,0,0,0-3,.6,24.9,24.9,0,0,0-4,1.9l-1.8,1.1-6.1-3.5,1.9-1.1q6.1-3.5,3-5.4a4.1,4.1,0,0,0-2.7-.5,8.2,8.2,0,0,0-3,1.1,9,9,0,0,0-4,4.5l-8.7-1.2a10.4,10.4,0,0,1,2.5-4.1,26.1,26.1,0,0,1,14.1-6.8A12.5,12.5,0,0,1,173.5,263.7Z" transform="translate(-148.5 -261.8)"/><path class="c" d="M173.6,266.6q2.8,1.6,3.1,3.7t-2,4.5h.1q8.4-3.8,14.5-.2,4.2,2.4,3.3,5.7t-6.8,6.7a39.8,39.8,0,0,1-4.8,2.4,43.9,43.9,0,0,1-5.7,1.8l-6.7-3.9a35.9,35.9,0,0,0,5.5-1.4,25.9,25.9,0,0,0,4.2-1.9q2.7-1.5,3.1-2.7t-1.1-2a5.1,5.1,0,0,0-2.5-.7,8.9,8.9,0,0,0-3,.6,24.9,24.9,0,0,0-4,1.9l-1.8,1.1-6.1-3.5,1.9-1.1q6.1-3.5,3-5.4a4.1,4.1,0,0,0-2.7-.5,8.2,8.2,0,0,0-3,1.1,9,9,0,0,0-4,4.5l-8.7-1.2a10.4,10.4,0,0,1,2.5-4.1,23.1,23.1,0,0,1,5-3.7,22.9,22.9,0,0,1,9.1-3.1A12.5,12.5,0,0,1,173.6,266.6Z" transform="translate(-148.5 -261.8)"/><polygon class="b" points="14.2 13.9 14.2 23.6 20.3 27.1 20.3 17.4 14.2 13.9"/><path class="a" d="M169.2,289.6l-6.8-3.9V275.6l.4-.2,6.4,3.7Zm-6.1-4.4,5.3,3.1v-8.8l-5.3-3.1Z" transform="translate(-148.5 -261.8)"/><polygon class="b" points="26.7 26.5 26.7 36.2 20 32.3 20 22.6 26.7 26.5"/><path class="a" d="M189.4,271.4c-3.9-2.2-8.5-2.3-13.7-.3a5.1,5.1,0,0,0,1.2-3.8c-.2-1.5-1.3-2.9-3.3-4a12.9,12.9,0,0,0-7.9-1.5,26.5,26.5,0,0,0-14.3,6.9,10.9,10.9,0,0,0-2.5,4v10.4l9.4,1.3v-10a8.6,8.6,0,0,1,3.8-4.3,7.8,7.8,0,0,1,2.9-1,3.7,3.7,0,0,1,2.4.4c.6.3.9.7.9,1.1s-.7,1.8-3.9,3.6l-2.1,1.2v.4l6.4,3.7,2-1.2a24.6,24.6,0,0,1,3.9-1.9,8.8,8.8,0,0,1,2.9-.6,4.8,4.8,0,0,1,2.3.7c1.3.8,1.1,1.4,1,1.6s-.9,1.3-3,2.5a25.7,25.7,0,0,1-4.2,1.9,35.7,35.7,0,0,1-5.3,1.4h-.4v10.2l7,4h.4v-9.7a43.8,43.8,0,0,0,5.5-1.8,40.4,40.4,0,0,0,4.9-2.4c4-2.3,6.3-4.6,6.9-6.9S192.3,273.1,189.4,271.4Zm-31.8,12.3-8-1.1v-8.9l8,1.1Zm17.3,13.7-5.9-3.4v-8.8l5.3,3,.7.4Zm17.3-20c-.6,2.1-2.8,4.2-6.6,6.4a39.6,39.6,0,0,1-4.8,2.4,43.3,43.3,0,0,1-5.5,1.8l-3.3-1.9-2.4-1.4a35.3,35.3,0,0,0,4.5-1.3,26.6,26.6,0,0,0,4.3-1.9c1.9-1.1,2.9-2,3.3-2.8s.3-1.6-1.3-2.5a5.5,5.5,0,0,0-2.7-.8,9.9,9.9,0,0,0-3.2.6,25.4,25.4,0,0,0-4.1,2l-1.6,1-5.3-3.1,1.3-.8c2.9-1.7,4.2-3,4.2-4.3a2.1,2.1,0,0,0-1.3-1.8,4.5,4.5,0,0,0-2.9-.5,8.6,8.6,0,0,0-3.1,1.1,9.4,9.4,0,0,0-4,4.4l-4.2-.6-3.8-.5a10.2,10.2,0,0,1,2.3-3.6,25.8,25.8,0,0,1,13.9-6.7,12.2,12.2,0,0,1,7.5,1.4c1.7,1,2.7,2.2,2.9,3.5s-.5,2.7-1.9,4.2l-.3.3.7.4h.2c5.5-2.4,10.2-2.5,14.2-.3S192.7,275.3,192.1,277.4Z" transform="translate(-148.5 -261.8)"/><path class="a" d="M174.8,288.1v10.1l.3.2h.2a44.5,44.5,0,0,0,5.8-1.8,40.4,40.4,0,0,0,4.9-2.4c4-2.3,6.3-4.6,6.9-6.9a4.5,4.5,0,0,0,.2-1.1V275.9l-2.9,5.6-5.1,3.4-5,2.2Z" transform="translate(-148.5 -261.8)"/><path class="a" d="M180.3,276.2a5.5,5.5,0,0,0-2.7-.8,9.8,9.8,0,0,0-3.2.6,25.4,25.4,0,0,0-4.1,2l-2,1.2v5.8h.4a36.2,36.2,0,0,0,5.2-1.4,26.6,26.6,0,0,0,4.3-1.9c1.9-1.1,2.9-2,3.3-2.8S181.8,277.1,180.3,276.2Z" transform="translate(-148.5 -261.8)"/><path class="a" d="M175.9,270.4l-.4.4-.6.9c0,.3.4.1,1.2-.2h1v-3.9Z" transform="translate(-148.5 -261.8)"/></svg>